<svg width="50" height="50" viewBox="0 0 50 50" fill="none" xmlns="http://www.w3.org/2000/svg">
<g clip-path="url(#clip0_1_2)">
<path d="M39.6374 31.117C38.6338 30.0721 37.4233 29.5133 36.1404 29.5133C34.8678 29.5133 33.6471 30.0617 32.6021 31.1067L29.3327 34.3656C29.0638 34.2208 28.7948 34.0863 28.5362 33.9518C28.1637 33.7655 27.812 33.5896 27.5119 33.4034C24.4495 31.4584 21.6665 28.9236 18.9973 25.644C17.704 24.0093 16.8349 22.6333 16.2038 21.2367C17.0522 20.4607 17.8384 19.6537 18.6041 18.8777C18.8937 18.588 19.1834 18.288 19.4731 17.9983C21.6458 15.8257 21.6458 13.0116 19.4731 10.8389L16.6487 8.01453C16.3279 7.6938 15.9969 7.36274 15.6865 7.03167C15.0658 6.39022 14.4139 5.72808 13.7415 5.10732C12.7379 4.11412 11.5378 3.58647 10.2756 3.58647C9.0134 3.58647 7.79258 4.11412 6.75799 5.10732C6.74764 5.11767 6.74764 5.11767 6.73729 5.12802L3.21968 8.67667C1.8954 10.001 1.14015 11.6149 0.974615 13.4875C0.726313 16.5085 1.61606 19.3226 2.29889 21.1642C3.97493 25.6854 6.47865 29.8755 10.2135 34.3656C14.745 39.7765 20.1974 44.0494 26.4256 47.06C28.8052 48.1877 31.9814 49.5224 35.53 49.75C35.7473 49.7603 35.9749 49.7707 36.1818 49.7707C38.5717 49.7707 40.5788 48.912 42.1514 47.2049C42.1618 47.1842 42.1825 47.1738 42.1927 47.1531C42.7308 46.5014 43.3515 45.9117 44.0033 45.2806C44.4482 44.8564 44.9034 44.4115 45.3482 43.9459C46.3726 42.8803 46.9105 41.6388 46.9105 40.3663C46.9105 39.0833 46.3622 37.8522 45.3173 36.8176L39.6374 31.117ZM43.3412 42.0113C43.3308 42.0216 43.3308 42.0113 43.3412 42.0113C42.9376 42.4458 42.5238 42.8389 42.0789 43.2734C41.4065 43.9149 40.7236 44.5874 40.0823 45.3426C39.0373 46.46 37.8061 46.9876 36.1922 46.9876C36.037 46.9876 35.8714 46.9876 35.7162 46.9773C32.6435 46.7807 29.788 45.5806 27.6464 44.5564C21.7906 41.7216 16.6487 37.697 12.3758 32.5965C8.84786 28.3443 6.48899 24.4128 4.92676 20.1917C3.96459 17.6156 3.61282 15.6084 3.76801 13.7151C3.87147 12.5047 4.33704 11.5011 5.19576 10.6424L8.72372 7.11443C9.23066 6.63852 9.76865 6.37987 10.2963 6.37987C10.948 6.37987 11.4757 6.77302 11.8068 7.10409C11.8172 7.11443 11.8275 7.12478 11.8378 7.13513C12.4689 7.72484 13.069 8.33525 13.7001 8.98705C14.0208 9.31812 14.3519 9.64919 14.6829 9.99059L17.5074 12.815C18.6041 13.9117 18.6041 14.9256 17.5074 16.0223C17.2074 16.3224 16.9176 16.6224 16.6176 16.9121C15.7486 17.8018 14.9209 18.6294 14.0208 19.4365C14.0001 19.4572 13.9794 19.4675 13.9691 19.4881C13.0793 20.3779 13.2449 21.247 13.4311 21.8367C13.4415 21.8677 13.4518 21.8987 13.4622 21.9298C14.1967 23.7093 15.2313 25.3853 16.8039 27.3821L16.8142 27.3925C19.6697 30.9101 22.6804 33.6518 26.0014 35.752C26.4256 36.021 26.8601 36.2382 27.2739 36.4451C27.6464 36.6314 27.9981 36.8073 28.2982 36.9934C28.3396 37.0141 28.381 37.0452 28.4224 37.0659C28.7741 37.2418 29.1052 37.3245 29.4466 37.3245C30.3053 37.3245 30.8433 36.7866 31.0192 36.6107L34.5575 33.0724C34.9092 32.7206 35.4679 32.2964 36.1197 32.2964C36.7612 32.2964 37.2888 32.6999 37.6095 33.0517C37.6199 33.062 37.6199 33.0621 37.6302 33.0724L43.3308 38.7729C44.3965 39.8282 44.3965 40.9146 43.3412 42.0113Z" fill="#2B2A35"/>
<path d="M27.3876 12.4114C30.0982 12.8667 32.5606 14.1495 34.5263 16.1152C36.4921 18.081 37.7645 20.5433 38.2301 23.2539C38.3439 23.9368 38.9336 24.4126 39.6062 24.4126C39.6889 24.4126 39.7614 24.4024 39.8441 24.392C40.6097 24.2678 41.1167 23.5436 40.9925 22.778C40.4338 19.4983 38.882 16.5084 36.5127 14.1391C34.1435 11.7699 31.1535 10.218 27.8738 9.65938C27.1082 9.53522 26.3944 10.0422 26.2599 10.7975C26.1254 11.5526 26.622 12.2873 27.3876 12.4114Z" fill="#2B2A35"/>
<path d="M49.8589 22.3747C48.9381 16.9741 46.393 12.0598 42.4823 8.14903C38.5715 4.23827 33.6572 1.69318 28.2566 0.772385C27.5014 0.637888 26.7875 1.15519 26.653 1.91044C26.5288 2.67604 27.0358 3.3899 27.8014 3.5244C32.6226 4.34173 37.0196 6.62818 40.5166 10.1147C44.0134 13.6117 46.2895 18.0087 47.1069 22.8299C47.2207 23.5127 47.8104 23.9886 48.4828 23.9886C48.5657 23.9886 48.638 23.9783 48.7209 23.9679C49.4761 23.8541 49.9934 23.1299 49.8589 22.3747Z" fill="#2B2A35"/>
</g>
<defs>
<clipPath id="clip0_1_2">
<rect width="50" height="50" fill="white"/>
</clipPath>
</defs>
</svg>
