<svg width="50" height="51" viewBox="0 0 50 51" fill="none" xmlns="http://www.w3.org/2000/svg">
<g clip-path="url(#clip0_1_11)">
<path d="M33.59 32.7297C38.8063 24.5444 38.1506 25.5656 38.3009 25.3523C40.2 22.6735 41.2037 19.5209 41.2037 16.2349C41.2037 7.52048 34.1322 0.341782 25.4065 0.341782C16.7091 0.341782 9.60909 7.50631 9.60909 16.2349C9.60909 19.5188 10.6339 22.754 12.5953 25.4687L17.2226 32.7298C12.2752 33.49 3.8646 35.7558 3.8646 40.7447C3.8646 42.5632 5.05161 45.155 10.7065 47.1745C14.655 48.5847 19.8755 49.3614 25.4065 49.3614C35.7489 49.3614 46.9482 46.4439 46.9482 40.7447C46.9482 35.7549 38.5475 33.4916 33.59 32.7297ZM14.9944 23.8889C14.9786 23.8642 14.9622 23.8401 14.9449 23.8164C13.3128 21.571 12.4814 18.91 12.4814 16.2349C12.4814 9.05252 18.2647 3.21402 25.4065 3.21402C32.5333 3.21402 38.3315 9.05511 38.3315 16.2349C38.3315 18.9143 37.5157 21.485 35.9719 23.6712C35.8335 23.8536 36.5553 22.7324 25.4065 40.2266L14.9944 23.8889ZM25.4065 46.4891C14.1095 46.4891 6.73684 43.1685 6.73684 40.7447C6.73684 39.1155 10.5251 36.4368 18.9197 35.3927L24.1953 43.6707C24.4589 44.0845 24.9157 44.335 25.4064 44.335C25.897 44.335 26.3538 44.0844 26.6174 43.6707L31.8928 35.3927C40.2876 36.4368 44.076 39.1155 44.076 40.7447C44.076 43.1479 36.7697 46.4891 25.4065 46.4891Z" fill="#2B2A35"/>
<path d="M25.4065 9.05424C21.4471 9.05424 18.2258 12.2755 18.2258 16.2349C18.2258 20.1942 21.4471 23.4155 25.4065 23.4155C29.3658 23.4155 32.5871 20.1942 32.5871 16.2349C32.5871 12.2755 29.3658 9.05424 25.4065 9.05424ZM25.4065 20.5432C23.0308 20.5432 21.098 18.6105 21.098 16.2349C21.098 13.8592 23.0308 11.9265 25.4065 11.9265C27.7821 11.9265 29.7148 13.8592 29.7148 16.2349C29.7148 18.6105 27.7821 20.5432 25.4065 20.5432Z" fill="#2B2A35"/>
</g>
<defs>
<clipPath id="clip0_1_11">
<rect width="50" height="50" fill="white" transform="translate(0 0.0196075)"/>
</clipPath>
</defs>
</svg>
