<svg width="50" height="51" viewBox="0 0 50 51" fill="none" xmlns="http://www.w3.org/2000/svg">
<path d="M21.9229 24.6751C23.0712 25.1349 24.2991 25.3628 25.5359 25.3458C26.7726 25.3286 27.9938 25.0669 29.1288 24.5754C29.4275 24.447 29.6627 24.2051 29.783 23.9031C29.9033 23.6011 29.8987 23.2637 29.7702 22.9651C29.6417 22.6666 29.3999 22.4312 29.0978 22.311C28.7959 22.1907 28.4585 22.1953 28.1599 22.3238C26.7836 22.9165 25.2528 23.0494 23.795 22.703C22.3371 22.3568 21.0297 21.5494 20.067 20.4011C19.1043 19.2527 18.5375 17.8246 18.451 16.3286C18.3643 14.8326 18.7625 13.3486 19.5862 12.0969C20.41 10.8451 21.6154 9.89235 23.0236 9.38006C24.4318 8.86775 25.9676 8.82323 27.4031 9.25308C28.8387 9.68294 30.0974 10.5642 30.9922 11.7662C31.8871 12.9681 32.3705 14.4266 32.3707 15.9251V16.7976V16.8336C32.3699 16.8472 32.3699 16.8608 32.3707 16.8744C32.3989 17.2838 32.2677 17.6882 32.0046 18.0031C31.7415 18.318 31.3668 18.519 30.9589 18.564C30.7834 18.5604 30.6104 18.5222 30.4497 18.4517C30.289 18.3811 30.1438 18.2796 30.0225 18.1528C29.901 18.0261 29.8058 17.8767 29.7422 17.7131C29.6785 17.5496 29.6478 17.3751 29.6518 17.1996V13.2535C29.6518 12.9285 29.5226 12.6168 29.2928 12.387C29.0629 12.1572 28.7513 12.028 28.4263 12.028C28.1355 12.0319 27.8559 12.1404 27.6386 12.3336C26.9873 11.926 26.2373 11.7031 25.4689 11.6891C24.7006 11.675 23.9428 11.8701 23.277 12.2535C22.611 12.6371 22.0619 13.1944 21.6883 13.866C21.3149 14.5375 21.1311 15.298 21.1566 16.0661C21.1822 16.8341 21.4161 17.5808 21.8333 18.2261C22.2507 18.8714 22.8356 19.391 23.5255 19.7293C24.2155 20.0677 24.9845 20.2121 25.7502 20.147C26.5159 20.0819 27.2494 19.8097 27.8724 19.3597C28.227 19.8668 28.6982 20.2812 29.2465 20.5681C29.7947 20.855 30.4039 21.0061 31.0226 21.0084C32.0764 20.9426 33.0626 20.4681 33.7717 19.6859C34.4807 18.9037 34.8563 17.8756 34.8184 16.8205C34.8184 16.8107 34.8184 16.8025 34.8184 16.7927V15.9251C34.8178 14.2148 34.3514 12.537 33.4692 11.0718C32.587 9.60659 31.3224 8.40938 29.8111 7.6087C28.2998 6.80803 26.5989 6.43413 24.8912 6.52717C23.1834 6.62021 21.5333 7.17667 20.1179 8.1368C18.7025 9.09692 17.5755 10.4244 16.8576 11.9768C16.1399 13.5292 15.8585 15.2477 16.0437 16.9479C16.2289 18.6482 16.8738 20.2659 17.909 21.6273C18.9443 22.9886 20.3308 24.0423 21.9197 24.6751H21.9229ZM25.4067 17.7126C25.0535 17.7108 24.7089 17.6042 24.4162 17.4067C24.1235 17.209 23.896 16.9292 23.7622 16.6024C23.6283 16.2756 23.5943 15.9165 23.6644 15.5704C23.7345 15.2243 23.9055 14.9067 24.1559 14.6576C24.4063 14.4086 24.7248 14.2393 25.0713 14.1712C25.4177 14.103 25.7767 14.1389 26.1027 14.2745C26.4288 14.4101 26.7075 14.6392 26.9034 14.9329C27.0994 15.2268 27.204 15.572 27.204 15.9251C27.2038 16.1606 27.1571 16.3937 27.0666 16.6112C26.9761 16.8286 26.8435 17.026 26.6765 17.1921C26.5095 17.3581 26.3114 17.4896 26.0934 17.579C25.8756 17.6683 25.6422 17.7137 25.4067 17.7126Z" fill="#2B2A35"/>
<path d="M49.2723 17.4741C49.098 16.9378 48.8248 16.439 48.4668 16.0035L41.8916 8.10482V5.78783C41.8903 4.59649 41.4165 3.45431 40.574 2.6119C39.7316 1.7695 38.5894 1.29566 37.3981 1.29436H13.4079C12.2166 1.29566 11.0744 1.7695 10.232 2.6119C9.38957 3.45431 8.91574 4.59649 8.91443 5.78783V8.11463L2.34417 16.0052C1.67343 16.8128 1.30585 17.8294 1.30495 18.8793V41.7062C1.30755 43.7638 2.12611 45.7365 3.5811 47.1915C5.03609 48.6464 7.00873 49.465 9.06639 49.4675H41.7462C43.7607 49.4691 45.6959 48.6827 47.1383 47.2764L47.1595 47.2617C47.9036 46.5404 48.4952 45.677 48.8991 44.7225C49.303 43.7682 49.5111 42.7425 49.5109 41.7062V18.8793C49.5066 18.4356 49.4361 17.995 49.3017 17.5722C49.2919 17.5378 49.2821 17.5084 49.2723 17.4741ZM46.104 44.7258L31.4815 32.0443L47.0566 20.1719V41.7062C47.0567 42.7866 46.724 43.8409 46.104 44.7258ZM46.5207 17.497L41.8916 21.0248V11.9366L46.5207 17.497ZM13.4079 3.74534H37.3981C37.9395 3.74621 38.4585 3.96167 38.8414 4.34453C39.2242 4.72738 39.4397 5.24639 39.4406 5.78783V22.894L29.5893 30.4104L28.0925 29.1032C27.3428 28.4626 26.3891 28.1107 25.403 28.1107C24.4169 28.1107 23.4631 28.4626 22.7134 29.1032L21.2266 30.394L11.3654 22.8777V5.78783C11.3663 5.24639 11.5818 4.72738 11.9646 4.34453C12.3475 3.96167 12.8665 3.74621 13.4079 3.74534ZM4.71181 44.7307C4.09003 43.8446 3.75626 42.7885 3.75593 41.7062V20.1636L19.3344 32.0395L4.71181 44.7307ZM8.91443 21.0117L4.29678 17.4921L8.91443 11.9366V21.0117ZM25.4063 47.0166H9.06639C8.1921 47.0107 7.3332 46.786 6.56803 46.363L24.3164 30.9626C24.6195 30.705 25.0043 30.5635 25.4022 30.5635C25.8 30.5635 26.1848 30.705 26.4879 30.9626L44.2494 46.363C43.4827 46.7867 42.6221 47.0114 41.7462 47.0166H25.4063Z" fill="#2B2A35"/>
</svg>
