<svg width="128" height="36" viewBox="0 0 128 36" fill="none" xmlns="http://www.w3.org/2000/svg">
<g clip-path="url(#clip0_646_1882)">
<path d="M22.2791 0.820601C21.6152 0.680449 20.9513 0.530463 20.2776 0.43457C19.3679 3.15891 18.4704 5.88817 17.573 8.61497C16.6608 5.88817 15.7633 3.15891 14.8535 0.43457C14.1798 0.530463 13.5233 0.680449 12.8521 0.820601C13.7323 3.47118 14.6118 6.12175 15.4904 8.77233C15.7166 9.44358 15.8838 10.1984 16.4591 10.673C16.7709 10.9396 17.1676 11.0862 17.5779 11.0862C17.9881 11.0862 18.3849 10.9396 18.6966 10.673C19.2745 10.1984 19.4343 9.44358 19.6654 8.77233C20.5309 6.12011 21.4021 3.47036 22.2791 0.823059V0.820601Z" fill="#F3434D"/>
<path d="M22.2789 35.1797C21.6151 35.3248 20.9512 35.4699 20.2775 35.5658C19.3677 32.8414 18.4703 30.1122 17.5728 27.3878C16.668 30.1122 15.7705 32.8414 14.8681 35.5658C14.1944 35.4699 13.5305 35.3199 12.8667 35.1797C13.7371 32.5308 14.6116 29.8827 15.4902 27.2354C15.7164 26.5641 15.8836 25.8093 16.459 25.3347C16.7707 25.0681 17.1675 24.9215 17.5777 24.9215C17.988 24.9215 18.3847 25.0681 18.6965 25.3347C19.2743 25.8093 19.4341 26.5641 19.6652 27.2354C20.5373 29.8892 21.4126 32.539 22.2912 35.1847L22.2789 35.1797Z" fill="#F3434D"/>
<path d="M17.7025 21.6959C17.0682 21.6973 16.4433 21.5421 15.8832 21.2442C15.3232 20.9463 14.8453 20.5148 14.492 19.9879C14.1387 19.4611 13.9208 18.8552 13.8577 18.224C13.7946 17.5928 13.8882 16.9558 14.1302 16.3695C14.3722 15.7831 14.7552 15.2655 15.2452 14.8626C15.7351 14.4597 16.3169 14.1839 16.939 14.0597C17.5611 13.9355 18.2042 13.9667 18.8113 14.1506C19.4184 14.3344 19.9708 14.6652 20.4195 15.1137C20.9583 15.6523 21.3255 16.3384 21.4747 17.0856C21.6239 17.8327 21.5483 18.6073 21.2577 19.3115C20.967 20.0157 20.4741 20.618 19.8414 21.0424C19.2087 21.4668 18.4644 21.6942 17.7025 21.6959ZM17.7025 15.6153C17.1909 15.6171 16.6958 15.7961 16.3013 16.1218C15.9069 16.4476 15.6374 16.8999 15.5389 17.4019C15.4404 17.9039 15.5188 18.4245 15.7608 18.8752C16.0029 19.3259 16.3936 19.6788 16.8665 19.8739C17.3394 20.0689 17.8653 20.0941 18.3547 19.9452C18.8441 19.7962 19.2668 19.4823 19.5509 19.0568C19.8349 18.6313 19.9627 18.1206 19.9126 17.6115C19.8626 17.1024 19.6376 16.6263 19.2761 16.2644C18.8582 15.8482 18.2923 15.6148 17.7025 15.6153Z" fill="#FF6A00"/>
<path d="M33.0459 9.18551C32.6796 8.61261 32.3083 8.04217 31.9051 7.49632C29.3332 8.77981 26.7686 10.0756 24.2017 11.364C25.4901 8.79702 26.7859 6.2325 28.0693 3.66306C27.526 3.25245 26.9531 2.88609 26.3802 2.51973C25.1294 5.01458 23.8763 7.50779 22.6207 9.99937C22.3035 10.6337 21.883 11.2853 21.9617 12.0279C21.9933 12.4369 22.1699 12.8213 22.4598 13.1116C22.7497 13.4019 23.1337 13.5791 23.5427 13.6113C24.2803 13.6826 24.9368 13.2671 25.5737 12.9499C28.0652 11.6943 30.5568 10.4403 33.0484 9.18797L33.0459 9.18551Z" fill="#2BD1FF"/>
<path d="M8.75121 33.4808C8.17831 33.1144 7.60787 32.7431 7.06201 32.3399C8.3455 29.768 9.64129 27.2035 10.9297 24.6365C8.36026 25.9249 5.79819 27.2207 3.22876 28.5042C2.81814 27.9608 2.45178 27.3879 2.08542 26.815C4.58027 25.5643 7.07349 24.3111 9.56507 23.0555C10.1994 22.7383 10.851 22.3179 11.5936 22.3965C12.0026 22.4281 12.387 22.6047 12.6773 22.8946C12.9676 23.1845 13.1448 23.5685 13.177 23.9775C13.2483 24.7152 12.8328 25.3717 12.5156 26.0085C11.26 28.5001 10.006 30.9916 8.75366 33.4832L8.75121 33.4808Z" fill="#2BD1FF"/>
<path d="M34.7447 22.7137C34.8897 22.0499 35.0348 21.386 35.1307 20.7123C32.4063 19.8025 29.6771 18.9051 26.9527 18.0076C29.6771 17.1028 32.4063 16.2053 35.1307 15.303C35.0348 14.6292 34.8848 13.9654 34.7447 13.3015C32.0957 14.1719 29.4476 15.0464 26.8003 15.925C26.129 16.1512 25.3742 16.3184 24.8996 16.8938C24.633 17.2055 24.4865 17.6023 24.4865 18.0125C24.4865 18.4228 24.633 18.8195 24.8996 19.1313C25.3742 19.7091 26.129 19.8689 26.8003 20.1001C29.4542 20.9721 32.1039 21.8474 34.7496 22.726L34.7447 22.7137Z" fill="#5646A5"/>
<path d="M0.386031 22.7137C0.245879 22.0498 0.0958929 21.3859 0 20.7122C2.72434 19.8024 5.4536 18.905 8.18041 18.0075C5.4536 17.0953 2.72434 16.1979 0 15.2881C0.0958929 14.6144 0.245879 13.9579 0.386031 13.2867C3.03661 14.1669 5.68719 15.0463 8.33777 15.9249C9.00902 16.1511 9.76387 16.3183 10.2384 16.8937C10.5051 17.2055 10.6516 17.6022 10.6516 18.0124C10.6516 18.4227 10.5051 18.8194 10.2384 19.1312C9.76387 19.709 9.00902 19.8688 8.33777 20.1C5.68555 20.9655 3.03579 21.8367 0.388489 22.7137H0.386031Z" fill="#5646A5"/>
<path d="M26.3806 33.4808C26.9535 33.1144 27.5264 32.7431 28.0698 32.3399C26.7863 29.768 25.4905 27.2035 24.2021 24.6365C26.7691 25.9249 29.3336 27.2207 31.9055 28.5042C32.3136 27.9608 32.68 27.3879 33.0463 26.815C30.5515 25.5643 28.0599 24.3111 25.5716 23.0555C24.9348 22.7383 24.2832 22.3179 23.5407 22.3965C23.132 22.4286 22.7483 22.6055 22.4585 22.8954C22.1687 23.1852 21.9918 23.5689 21.9597 23.9775C21.8859 24.7152 22.3014 25.3717 22.6186 26.0085C23.8759 28.5001 25.1307 30.9916 26.383 33.4832L26.3806 33.4808Z" fill="#FFBC2E"/>
<path d="M2.08542 9.18551C2.45178 8.61261 2.82305 8.04217 3.22876 7.49632C5.79819 8.77981 8.36026 10.0756 10.9297 11.364C9.64129 8.79456 8.3455 6.2325 7.06201 3.66306C7.60787 3.25245 8.17831 2.88609 8.75121 2.51973C10.0019 5.01458 11.2567 7.50779 12.5156 9.99937C12.8328 10.6337 13.2533 11.2853 13.177 12.0279C13.1454 12.4373 12.9684 12.822 12.678 13.1123C12.3877 13.4027 12.003 13.5797 11.5936 13.6113C10.8559 13.6826 10.1994 13.2671 9.56507 12.9499C7.07185 11.6943 4.57945 10.4403 2.08788 9.18797L2.08542 9.18551Z" fill="#FFBC2E"/>
<path d="M44.2695 16.8595V5.44092H48.5503C49.3176 5.41579 50.0788 5.58494 50.7632 5.93268C51.3373 6.23795 51.8085 6.7058 52.118 7.27764C52.4304 7.87679 52.5885 8.54443 52.5778 9.22008C52.5903 9.89936 52.4313 10.5708 52.1155 11.1724C51.8024 11.7444 51.3266 12.2107 50.7485 12.5124C50.0632 12.8579 49.3026 13.027 48.5355 13.0042H45.6833V11.3002H48.2429C48.6792 11.3176 49.1128 11.2255 49.5043 11.0322C49.8168 10.8676 50.0703 10.6098 50.2296 10.2946C50.3967 9.96048 50.481 9.59112 50.4755 9.21762C50.4811 8.84648 50.3968 8.47949 50.2296 8.14805C50.0668 7.83548 49.8083 7.58308 49.492 7.42762C49.0975 7.23881 48.6628 7.14934 48.2257 7.16699H46.33V16.8595H44.2695Z" fill="#1E2326"/>
<path d="M56.4182 17.0312C55.9111 17.0407 55.4079 16.9409 54.9429 16.7386C54.524 16.5541 54.1671 16.2528 53.9151 15.8706C53.6562 15.4441 53.5295 14.9504 53.5512 14.4519C53.5361 14.0374 53.6275 13.626 53.8168 13.2569C53.9931 12.9451 54.2473 12.6842 54.5544 12.4996C54.8789 12.3034 55.2312 12.1575 55.5994 12.0669C55.9962 11.9671 56.3997 11.8956 56.8067 11.853C57.2984 11.7989 57.7164 11.7522 58.036 11.7104C58.2743 11.6895 58.5059 11.621 58.7171 11.5087C58.7881 11.4638 58.8457 11.4006 58.8837 11.3258C58.9218 11.2509 58.939 11.1672 58.9335 11.0834V11.0489C58.9453 10.8678 58.9181 10.6862 58.8536 10.5165C58.7891 10.3468 58.6889 10.193 58.5598 10.0654C58.2577 9.81778 57.8725 9.69467 57.4828 9.7212C57.0673 9.69901 56.6558 9.81202 56.31 10.0433C56.0426 10.2331 55.8394 10.4999 55.7272 10.808L53.8438 10.54C53.9756 10.0488 54.2293 9.59885 54.5814 9.2319C54.9333 8.87551 55.3624 8.60465 55.8354 8.44017C56.3631 8.25965 56.9178 8.17067 57.4754 8.17708C57.8895 8.17666 58.3022 8.22536 58.7048 8.32215C59.0991 8.41504 59.4743 8.5756 59.8138 8.7967C60.1569 9.02366 60.4375 9.33308 60.6301 9.69661C60.8545 10.1393 60.9636 10.6315 60.9473 11.1276V16.8591H59.0073V15.6813H58.9384C58.8078 15.932 58.6339 16.1576 58.4245 16.3476C58.1822 16.5642 57.8999 16.7313 57.5935 16.8394C57.2162 16.9727 56.8182 17.0377 56.4182 17.0312ZM56.9419 15.5559C57.3079 15.5647 57.6701 15.4801 57.9943 15.31C58.278 15.1619 58.5161 14.9392 58.6827 14.6658C58.8448 14.4027 58.93 14.0995 58.9286 13.7905V12.7824C58.8319 12.8501 58.7236 12.8993 58.6089 12.9275C58.4422 12.9753 58.2731 13.0147 58.1024 13.0455L57.5517 13.134L57.0771 13.2004C56.8013 13.2355 56.5305 13.3031 56.2706 13.402C56.0524 13.4792 55.8583 13.6123 55.7076 13.788C55.5456 14.0127 55.476 14.2909 55.5131 14.5654C55.5501 14.8398 55.691 15.0896 55.9067 15.2633C56.2141 15.463 56.5757 15.5626 56.9419 15.5485V15.5559Z" fill="#1E2326"/>
<path d="M66.5486 20.2136C65.9137 20.2281 65.2811 20.1308 64.6799 19.9259C64.2098 19.7625 63.7816 19.4972 63.426 19.1489C63.1258 18.8511 62.9008 18.4862 62.7695 18.0843L64.5865 17.6491C64.6827 17.8223 64.8028 17.9812 64.943 18.1212C65.1228 18.2994 65.3381 18.4376 65.5749 18.5269C65.8971 18.6468 66.2395 18.7028 66.583 18.6916C67.089 18.7111 67.5876 18.5661 68.0042 18.2785C68.378 18.0056 68.5673 17.5606 68.5673 16.9483V15.3255H68.4665C68.3438 15.5586 68.1909 15.7743 68.0116 15.9673C67.79 16.203 67.5221 16.3905 67.2248 16.518C66.8357 16.6795 66.4165 16.7558 65.9954 16.7418C65.3683 16.7505 64.7505 16.589 64.2079 16.2746C63.657 15.9452 63.215 15.4613 62.9367 14.8829C62.5997 14.1543 62.4388 13.3567 62.467 12.5545C62.4415 11.735 62.6021 10.9204 62.9367 10.1719C63.2128 9.56935 63.6545 9.05771 64.2103 8.69662C64.7461 8.35995 65.3676 8.18494 66.0003 8.19256C66.4238 8.1756 66.8453 8.2599 67.2297 8.43844C67.5339 8.58335 67.8051 8.78923 68.0264 9.04331C68.1982 9.24779 68.3458 9.47137 68.4665 9.70964H68.5698V8.30567H70.5614V16.9975C70.5876 17.6351 70.4064 18.264 70.045 18.79C69.6806 19.2781 69.1828 19.6504 68.6116 19.862C67.9518 20.1065 67.2522 20.2257 66.5486 20.2136ZM66.5658 15.1534C66.9532 15.1644 67.3346 15.0553 67.6575 14.8411C67.9703 14.6168 68.2091 14.3043 68.3435 13.9437C68.5104 13.4941 68.5897 13.0167 68.5771 12.5372C68.5873 12.0558 68.5089 11.5766 68.346 11.1234C68.2141 10.75 67.9787 10.4217 67.6674 10.1768C67.3381 9.95378 66.9489 9.8358 66.5512 9.83844C66.1536 9.84107 65.766 9.96419 65.4397 10.1916C65.1266 10.4414 64.8905 10.7747 64.7586 11.1529C64.6001 11.597 64.5226 12.0658 64.53 12.5372C64.5208 13.0058 64.5992 13.4719 64.7611 13.9117C64.8949 14.2774 65.1335 14.5955 65.4471 14.8264C65.7753 15.0525 66.1675 15.1672 66.5658 15.1534Z" fill="#1E2326"/>
<path d="M73.5316 7.07558C73.2244 7.08072 72.9272 6.96608 72.703 6.75593C72.5948 6.65775 72.5083 6.53801 72.4491 6.40441C72.3899 6.27081 72.3594 6.1263 72.3594 5.98018C72.3594 5.83406 72.3899 5.68956 72.4491 5.55596C72.5083 5.42236 72.5948 5.30262 72.703 5.20444C72.9289 5.00055 73.2224 4.8877 73.5267 4.8877C73.831 4.8877 74.1245 5.00055 74.3504 5.20444C74.4579 5.30302 74.5438 5.42289 74.6026 5.55644C74.6613 5.68999 74.6916 5.83429 74.6916 5.98018C74.6916 6.12608 74.6613 6.27038 74.6026 6.40393C74.5438 6.53747 74.4579 6.65735 74.3504 6.75593C74.1291 6.96437 73.8356 7.07893 73.5316 7.07558ZM72.5186 16.8542V8.30497H74.5348V16.8591L72.5186 16.8542Z" fill="#1E2326"/>
<path d="M76.4844 16.8599V8.30577H78.4391V9.73187H78.5301C78.662 9.27123 78.9452 8.86845 79.3341 8.58853C79.7163 8.31838 80.1742 8.17634 80.6422 8.18283C80.752 8.18283 80.8774 8.18775 81.0184 8.19758C81.1356 8.20382 81.2522 8.21779 81.3675 8.23938V10.0958C81.235 10.0566 81.0992 10.0294 80.9618 10.0146C80.7858 9.99053 80.6084 9.97821 80.4307 9.97775C80.0874 9.97525 79.749 10.0598 79.4472 10.2236C79.1627 10.3753 78.9248 10.6013 78.7588 10.8777C78.5896 11.1702 78.5045 11.5037 78.5129 11.8415V16.8599H76.4844Z" fill="#1E2326"/>
<path d="M84.5123 11.8416V16.86H82.4961V8.30584H84.4238V9.76145H84.5246C84.7133 9.29176 85.0432 8.89225 85.4688 8.61811C85.9515 8.32207 86.5109 8.17496 87.0768 8.1952C87.6168 8.18184 88.1506 8.31254 88.6234 8.57385C89.0679 8.82956 89.4258 9.2123 89.6512 9.67293C89.9077 10.2172 90.0308 10.8148 90.0102 11.4162V16.86H87.994V11.7186C88.0232 11.2311 87.8649 10.7507 87.5514 10.3761C87.3946 10.2096 87.2034 10.0794 86.991 9.99443C86.7787 9.9095 86.5503 9.87194 86.322 9.88439C85.9927 9.88239 85.6688 9.9672 85.3827 10.1303C85.1083 10.285 84.8852 10.5166 84.741 10.7966C84.5809 11.1212 84.5024 11.4798 84.5123 11.8416Z" fill="#1E2326"/>
<path d="M96.0006 8.30551V9.86685H91.083V8.30551H96.0006ZM92.2927 6.25488H94.3114V14.2828C94.2991 14.4975 94.3423 14.7118 94.4368 14.9049C94.5109 15.0357 94.6283 15.1365 94.7687 15.1901C94.9152 15.2437 95.0701 15.2704 95.2261 15.2688C95.3431 15.2696 95.46 15.2597 95.5752 15.2393C95.6809 15.2221 95.7621 15.2049 95.8211 15.1901L96.1629 16.7687C96.0118 16.8167 95.8583 16.8569 95.7031 16.8892C95.4605 16.9401 95.2133 16.9665 94.9654 16.9678C94.4984 16.9898 94.0322 16.9109 93.5984 16.7367C93.2057 16.5765 92.8706 16.3014 92.637 15.9474C92.3891 15.5467 92.2675 15.0806 92.2878 14.6099L92.2927 6.25488Z" fill="#1E2326"/>
<path d="M99.4278 11.8407V16.8591H97.4092V5.44043H99.3762V9.75069H99.477C99.6648 9.28268 99.9907 8.88299 100.411 8.60489C100.895 8.3074 101.457 8.161 102.024 8.18444C102.569 8.1672 103.108 8.29355 103.588 8.5508C104.033 8.80299 104.391 9.18347 104.616 9.6425C104.874 10.1908 104.999 10.7924 104.98 11.3981V16.8591H102.964V11.7177C102.993 11.229 102.834 10.7476 102.519 10.3728C102.361 10.2076 102.169 10.0782 101.957 9.99335C101.745 9.90852 101.517 9.8702 101.289 9.88101C100.955 9.87942 100.625 9.9641 100.333 10.1269C100.053 10.2795 99.8246 10.5113 99.6762 10.7932C99.5056 11.1155 99.4201 11.4761 99.4278 11.8407Z" fill="#1E2326"/>
<path d="M107.91 7.07576C107.603 7.08143 107.306 6.96671 107.082 6.75612C106.974 6.65773 106.888 6.53793 106.829 6.40435C106.77 6.27078 106.739 6.12638 106.739 5.98037C106.739 5.83436 106.77 5.68996 106.829 5.55639C106.888 5.42281 106.974 5.30301 107.082 5.20462C107.305 4.99417 107.601 4.87943 107.908 4.88498C108.213 4.87914 108.508 4.99401 108.729 5.20462C108.837 5.30321 108.923 5.42308 108.981 5.55662C109.04 5.69017 109.07 5.83447 109.07 5.98037C109.07 6.12627 109.04 6.27057 108.981 6.40411C108.923 6.53766 108.837 6.65753 108.729 6.75612C108.508 6.96522 108.214 7.0799 107.91 7.07576ZM106.895 16.8544V8.30516H108.894V16.8593L106.895 16.8544Z" fill="#1E2326"/>
<path d="M114.001 17.009C113.361 17.0179 112.732 16.8374 112.194 16.4902C111.64 16.1177 111.204 15.596 110.935 14.9855C110.606 14.2302 110.447 13.4117 110.47 12.5881C110.445 11.7589 110.607 10.9347 110.942 10.1761C111.217 9.57263 111.659 9.06064 112.216 8.70079C112.752 8.36412 113.373 8.18911 114.006 8.19673C114.43 8.17911 114.851 8.26343 115.235 8.44261C115.538 8.58491 115.807 8.78934 116.025 9.04256C116.195 9.24828 116.342 9.47167 116.465 9.70889H116.548V5.44043H118.572V16.8591H116.588V15.5092H116.465C116.338 15.7489 116.182 15.9719 116 16.1731C115.782 16.4205 115.517 16.622 115.221 16.7656C114.839 16.9415 114.421 17.0249 114.001 17.009ZM114.564 15.3518C114.957 15.3623 115.341 15.2402 115.656 15.0051C115.972 14.7481 116.21 14.4073 116.342 14.0216C116.506 13.5542 116.585 13.0613 116.575 12.566C116.586 12.0749 116.508 11.5859 116.344 11.1227C116.213 10.7464 115.976 10.4155 115.663 10.1687C115.336 9.94851 114.95 9.83194 114.555 9.83413C114.16 9.83632 113.775 9.95717 113.45 10.181C113.135 10.4332 112.899 10.7702 112.769 11.1522C112.61 11.6061 112.532 12.0849 112.541 12.566C112.532 13.053 112.61 13.5375 112.772 13.997C112.904 14.3823 113.142 14.723 113.458 14.9805C113.773 15.2281 114.164 15.3593 114.564 15.3518Z" fill="#1E2326"/>
<path d="M125.981 13.2567V8.30469H127.999V16.8588H126.032V15.3368H125.944C125.751 15.8146 125.419 16.2238 124.992 16.5121C124.511 16.8292 123.943 16.989 123.367 16.9695C122.851 16.9781 122.341 16.8482 121.892 16.5933C121.455 16.3348 121.105 15.9522 120.886 15.4942C120.629 14.9483 120.504 14.3493 120.522 13.746V8.30469H122.541V13.4362C122.517 13.9079 122.676 14.3706 122.986 14.727C123.135 14.8885 123.316 15.016 123.519 15.1008C123.721 15.1857 123.939 15.2259 124.159 15.2188C124.46 15.2183 124.756 15.144 125.022 15.0024C125.306 14.8523 125.544 14.628 125.71 14.3533C125.903 14.0211 125.997 13.6405 125.981 13.2567Z" fill="#1E2326"/>
<path d="M43.9824 30.9878V22.4238H49.468V23.7245H45.5339V26.0481H49.0967V27.3488H45.5388V30.9878H43.9824Z" fill="#1E2326"/>
<path d="M53.3251 31.1129C52.7537 31.1278 52.1894 30.9839 51.6949 30.6973C51.235 30.4223 50.8644 30.0201 50.6278 29.5393C50.3776 28.993 50.248 28.3993 50.248 27.7984C50.248 27.1976 50.3776 26.6038 50.6278 26.0576C50.8636 25.5749 51.2343 25.171 51.6949 24.8946C52.1955 24.6235 52.7558 24.4814 53.3251 24.4814C53.8944 24.4814 54.4547 24.6235 54.9553 24.8946C55.4179 25.1707 55.791 25.5746 56.0298 26.0576C56.28 26.6038 56.4095 27.1976 56.4095 27.7984C56.4095 28.3993 56.28 28.993 56.0298 29.5393C55.7915 30.0197 55.4203 30.4217 54.9602 30.6973C54.4642 30.9848 53.8981 31.1287 53.3251 31.1129ZM53.3251 29.9007C53.634 29.9102 53.9362 29.81 54.1783 29.6179C54.4143 29.4155 54.591 29.153 54.6897 28.8582C54.916 28.1664 54.916 27.4206 54.6897 26.7289C54.591 26.4327 54.4143 26.1685 54.1783 25.9642C53.9368 25.7709 53.6342 25.6706 53.3251 25.6814C53.0113 25.669 52.7034 25.7693 52.4571 25.9642C52.2188 26.167 52.041 26.4316 51.9433 26.7289C51.717 27.4206 51.717 28.1664 51.9433 28.8582C52.0411 29.154 52.219 29.417 52.4571 29.6179C52.708 29.815 53.0212 29.9153 53.3398 29.9007H53.3251Z" fill="#1E2326"/>
<path d="M61.6859 28.2856V24.5654H63.1981V30.9878H61.7228V29.8445H61.6564C61.5123 30.2033 61.2639 30.5108 60.9434 30.7272C60.5797 30.9678 60.1497 31.0882 59.714 31.0714C59.3233 31.0787 58.9378 30.9811 58.5977 30.7886C58.2706 30.5943 58.008 30.3077 57.8429 29.9649C57.6526 29.5549 57.56 29.1063 57.5724 28.6544V24.5654H59.0845V28.4208C59.0667 28.7748 59.1865 29.122 59.4189 29.3896C59.5312 29.5092 59.668 29.6032 59.8199 29.6651C59.9718 29.7271 60.1353 29.7555 60.2992 29.7486C60.5247 29.7477 60.7466 29.692 60.9459 29.5863C61.1597 29.4727 61.3383 29.3026 61.4622 29.0945C61.6119 28.8515 61.6895 28.571 61.6859 28.2856Z" fill="#1E2326"/>
<path d="M66.2168 27.2233V30.9877H64.7021V24.5654H66.1504V25.6571H66.2241C66.3667 25.3045 66.615 25.0048 66.9347 24.799C67.2965 24.5773 67.7155 24.467 68.1395 24.4818C68.5471 24.4706 68.9502 24.5682 69.3075 24.7646C69.6395 24.9574 69.9072 25.2439 70.0771 25.5882C70.2699 25.9975 70.3626 26.4467 70.3475 26.8988V30.9877H68.8157V27.1324C68.8374 26.7663 68.7187 26.4058 68.4838 26.1243C68.3683 26.0039 68.2286 25.9094 68.0739 25.8471C67.9192 25.7848 67.753 25.7561 67.5863 25.7628C67.3399 25.7583 67.0965 25.8185 66.8806 25.9374C66.6765 26.0513 66.5099 26.2222 66.4012 26.4292C66.2745 26.6744 66.2111 26.9474 66.2168 27.2233Z" fill="#1E2326"/>
<path d="M74.1866 31.1009C73.7062 31.1078 73.2346 30.9718 72.8318 30.71C72.416 30.4313 72.0885 30.0398 71.8876 29.5814C71.6415 29.015 71.5232 28.4013 71.5409 27.784C71.5223 27.1627 71.6433 26.5451 71.895 25.9768C72.0984 25.5203 72.4298 25.1325 72.849 24.8605C73.2506 24.6073 73.7168 24.4758 74.1915 24.4818C74.5112 24.4701 74.829 24.535 75.1185 24.6712C75.3405 24.7822 75.5372 24.9379 75.6963 25.1285C75.824 25.2797 75.9345 25.4446 76.0258 25.6203H76.0897V22.4238H77.6068V30.9878H76.1192V29.9748H76.0258C75.9341 30.1519 75.8209 30.317 75.6889 30.4665C75.5254 30.6524 75.3265 30.8037 75.1037 30.9116C74.817 31.0455 74.5029 31.1104 74.1866 31.1009ZM74.6095 29.8715C74.9044 29.8796 75.1933 29.7868 75.4283 29.6084C75.667 29.4172 75.8455 29.161 75.9422 28.8708C76.1766 28.1644 76.1766 27.4012 75.9422 26.6947C75.8439 26.4134 75.6673 26.166 75.4332 25.9817C75.1928 25.8101 74.9021 25.7236 74.607 25.7358C74.3035 25.7255 74.0054 25.8182 73.7612 25.9989C73.5252 26.1917 73.3487 26.4475 73.2523 26.7365C73.0211 27.4292 73.0211 28.1781 73.2523 28.8708C73.3521 29.1594 73.53 29.4148 73.7661 29.6084C74.0101 29.7865 74.3079 29.8751 74.6095 29.8592V29.8715Z" fill="#1E2326"/>
<path d="M80.9725 31.1155C80.5947 31.1225 80.2198 31.0478 79.8734 30.8966C79.5591 30.7599 79.2916 30.5343 79.1038 30.2475C78.9084 29.9285 78.811 29.5592 78.8235 29.1853C78.8119 28.8733 78.8805 28.5634 79.0227 28.2854C79.1543 28.0526 79.343 27.8572 79.571 27.7174C79.8142 27.5696 80.0788 27.4601 80.3554 27.3929C80.6526 27.3175 80.9551 27.2641 81.2602 27.2331C81.6364 27.1937 81.9413 27.1568 82.1749 27.1249C82.3546 27.1104 82.5295 27.0594 82.6888 26.9749C82.7413 26.9406 82.7839 26.8929 82.8119 26.8367C82.84 26.7805 82.8527 26.7179 82.8486 26.6552V26.6306C82.8573 26.4948 82.8368 26.3587 82.7885 26.2314C82.7401 26.1042 82.665 25.9888 82.5683 25.893C82.3403 25.7117 82.0521 25.6239 81.7618 25.6471C81.4495 25.6321 81.1408 25.7184 80.8815 25.893C80.681 26.0353 80.5284 26.2351 80.4439 26.4659L79.0325 26.2667C79.1303 25.8977 79.3197 25.5594 79.5833 25.2832C79.8472 25.0156 80.1695 24.8128 80.525 24.6907C80.9202 24.5536 81.3362 24.4862 81.7544 24.4915C82.0649 24.4921 82.3743 24.5284 82.6765 24.5997C82.9752 24.6694 83.2596 24.79 83.5174 24.9562C83.7746 25.127 83.9851 25.3595 84.1296 25.6324C84.2997 25.9619 84.3842 26.3288 84.3755 26.6995V30.9975H82.9199V30.1148H82.8707C82.7698 30.2994 82.6385 30.4656 82.4822 30.6065C82.2976 30.7707 82.0819 30.8961 81.8478 30.9753C81.5668 31.0739 81.2703 31.1214 80.9725 31.1155ZM81.3659 30.0041C81.6401 30.0104 81.9115 29.9478 82.1552 29.8222C82.3691 29.7086 82.5477 29.5385 82.6715 29.3304C82.7914 29.1324 82.8543 28.9053 82.8535 28.6739V27.9264C82.7796 27.9786 82.696 28.0154 82.6076 28.0346C82.4833 28.0718 82.3569 28.1013 82.229 28.1231C82.0913 28.1477 81.9511 28.1699 81.8159 28.1895L81.4594 28.2412C81.2522 28.2655 81.049 28.3159 80.8545 28.3911C80.691 28.45 80.5453 28.5499 80.4316 28.6813C80.3089 28.8498 80.256 29.0592 80.2839 29.2659C80.3118 29.4725 80.4185 29.6603 80.5816 29.7902C80.8114 29.9399 81.082 30.0147 81.3561 30.0041H81.3659Z" fill="#1E2326"/>
<path d="M88.9148 24.5656V25.736H85.2266V24.5656H88.9148ZM86.1363 23.0264H87.6485V29.0553C87.6397 29.2164 87.6719 29.3771 87.7419 29.5225C87.7963 29.6215 87.8831 29.6988 87.9878 29.7413C88.0971 29.782 88.213 29.8021 88.3296 29.8003C88.4169 29.801 88.5042 29.7936 88.5902 29.7782C88.6713 29.7782 88.7303 29.7512 88.7721 29.7413L89.018 30.924C88.9369 30.951 88.8213 30.983 88.6738 31.0174C88.494 31.053 88.3112 31.072 88.1279 31.074C87.7778 31.0904 87.4282 31.0317 87.1026 30.9019C86.8083 30.7814 86.5572 30.5749 86.3822 30.3093C86.1956 30.0091 86.1047 29.6592 86.1216 29.3061L86.1363 23.0264Z" fill="#1E2326"/>
<path d="M90.7537 23.6533C90.6393 23.6552 90.5257 23.6344 90.4193 23.5922C90.313 23.55 90.216 23.4872 90.1341 23.4074C90.0525 23.3343 89.9873 23.2449 89.9427 23.1449C89.8981 23.0449 89.875 22.9367 89.875 22.8272C89.875 22.7177 89.8981 22.6094 89.9427 22.5094C89.9873 22.4095 90.0525 22.32 90.1341 22.2469C90.3018 22.0931 90.5212 22.0078 90.7488 22.0078C90.9763 22.0078 91.1957 22.0931 91.3635 22.2469C91.4446 22.3202 91.5095 22.4097 91.5539 22.5097C91.5983 22.6096 91.6213 22.7178 91.6213 22.8272C91.6213 22.9365 91.5983 23.0447 91.5539 23.1447C91.5095 23.2446 91.4446 23.3341 91.3635 23.4074C91.283 23.4865 91.1877 23.5489 91.083 23.5911C90.9784 23.6333 90.8665 23.6544 90.7537 23.6533ZM89.9939 30.9879V24.5655H91.5061V30.9879H89.9939Z" fill="#1E2326"/>
<path d="M95.7787 31.1129C95.2074 31.1278 94.6431 30.9839 94.1485 30.6973C93.6885 30.4217 93.3173 30.0197 93.079 29.5393C92.8287 28.993 92.6992 28.3993 92.6992 27.7984C92.6992 27.1976 92.8287 26.6038 93.079 26.0576C93.3144 25.5762 93.683 25.1726 94.1412 24.8946C94.6417 24.6235 95.2021 24.4814 95.7714 24.4814C96.3407 24.4814 96.901 24.6235 97.4015 24.8946C97.8622 25.171 98.2329 25.5749 98.4686 26.0576C98.7189 26.6038 98.8484 27.1976 98.8484 27.7984C98.8484 28.3993 98.7189 28.993 98.4686 29.5393C98.2321 30.0201 97.8615 30.4223 97.4015 30.6973C96.9092 30.9826 96.3476 31.1264 95.7787 31.1129ZM95.7787 29.9007C96.0877 29.9106 96.3901 29.8104 96.6319 29.6179C96.8694 29.4169 97.0464 29.1539 97.1434 28.8582C97.3696 28.1664 97.3696 27.4206 97.1434 26.7289C97.0466 26.4317 96.8696 26.1671 96.6319 25.9642C96.3907 25.7706 96.0879 25.6702 95.7787 25.6814C95.465 25.6695 95.1573 25.7697 94.9108 25.9642C94.6732 26.1676 94.4955 26.432 94.3969 26.7289C94.1707 27.4206 94.1707 28.1664 94.3969 28.8582C94.4956 29.1536 94.6733 29.4163 94.9108 29.6179C95.1598 29.8129 95.47 29.9131 95.7861 29.9007H95.7787Z" fill="#1E2326"/>
<path d="M101.57 27.2231V30.9875H100.056V24.5652H101.501V25.6569H101.578C101.718 25.304 101.966 25.004 102.286 24.7987C102.646 24.5784 103.063 24.4681 103.486 24.4816C103.891 24.4719 104.291 24.5695 104.646 24.7643C104.978 24.9579 105.245 25.2443 105.416 25.588C105.608 25.9974 105.7 26.4466 105.684 26.8986V30.9875H104.172V27.1321C104.194 26.7657 104.074 26.4047 103.837 26.124C103.72 26.0005 103.577 25.904 103.419 25.8412C103.26 25.7783 103.09 25.7507 102.92 25.7601C102.675 25.7557 102.432 25.8159 102.217 25.9347C102.008 26.0462 101.837 26.2174 101.725 26.4265C101.608 26.6751 101.555 26.9488 101.57 27.2231Z" fill="#1E2326"/>
</g>
<defs>
<clipPath id="clip0_646_1882">
<rect width="128" height="35.1313" fill="white" transform="translate(0 0.43457)"/>
</clipPath>
</defs>
</svg>
