<svg width="128" height="36" viewBox="0 0 128 36" fill="none" xmlns="http://www.w3.org/2000/svg">
<g clip-path="url(#clip0_646_555)">
<path d="M22.2791 0.894819C21.6152 0.754668 20.9513 0.604682 20.2776 0.508789C19.3679 3.23313 18.4704 5.96239 17.573 8.68919C16.6608 5.96239 15.7633 3.23313 14.8535 0.508789C14.1798 0.604682 13.5233 0.754668 12.8521 0.894819C13.7323 3.5454 14.6118 6.19597 15.4904 8.84655C15.7166 9.5178 15.8838 10.2726 16.4591 10.7472C16.7709 11.0139 17.1676 11.1604 17.5779 11.1604C17.9881 11.1604 18.3849 11.0139 18.6966 10.7472C19.2745 10.2726 19.4343 9.5178 19.6654 8.84655C20.5309 6.19433 21.4021 3.54458 22.2791 0.897278V0.894819Z" fill="#F3434D"/>
<path d="M22.2789 35.254C21.6151 35.399 20.9512 35.5441 20.2775 35.64C19.3677 32.9156 18.4703 30.1864 17.5728 27.462C16.668 30.1864 15.7705 32.9156 14.8681 35.64C14.1944 35.5441 13.5305 35.3941 12.8667 35.254C13.7371 32.605 14.6116 29.9569 15.4902 27.3096C15.7164 26.6384 15.8836 25.8835 16.459 25.409C16.7707 25.1423 17.1675 24.9958 17.5777 24.9958C17.988 24.9958 18.3847 25.1423 18.6965 25.409C19.2743 25.8835 19.4341 26.6384 19.6652 27.3096C20.5373 29.9635 21.4126 32.6132 22.2912 35.2589L22.2789 35.254Z" fill="#F3434D"/>
<path d="M17.7025 21.7701C17.0681 21.7715 16.4433 21.6163 15.8832 21.3184C15.3232 21.0205 14.8453 20.589 14.492 20.0622C14.1387 19.5353 13.9208 18.9295 13.8577 18.2983C13.7946 17.6671 13.8882 17.03 14.1302 16.4437C14.3722 15.8573 14.7552 15.3397 15.2452 14.9368C15.7351 14.5339 16.3169 14.2582 16.939 14.1339C17.5611 14.0097 18.2042 14.0409 18.8113 14.2248C19.4184 14.4086 19.9708 14.7394 20.4195 15.1879C20.9583 15.7265 21.3255 16.4127 21.4747 17.1598C21.6239 17.9069 21.5483 18.6815 21.2577 19.3857C20.967 20.0899 20.4741 20.6923 19.8414 21.1166C19.2087 21.541 18.4644 21.7684 17.7025 21.7701ZM17.7025 15.6895C17.1909 15.6913 16.6958 15.8703 16.3013 16.196C15.9069 16.5218 15.6374 16.9741 15.5389 17.4761C15.4404 17.9781 15.5188 18.4987 15.7608 18.9494C16.0029 19.4001 16.3936 19.753 16.8665 19.9481C17.3394 20.1432 17.8653 20.1684 18.3547 20.0194C18.8441 19.8704 19.2668 19.5565 19.5509 19.131C19.8349 18.7056 19.9627 18.1948 19.9126 17.6857C19.8626 17.1766 19.6376 16.7006 19.2761 16.3386C18.8582 15.9224 18.2923 15.689 17.7025 15.6895Z" fill="#FF6A00"/>
<path d="M33.0459 9.25973C32.6796 8.68683 32.3083 8.11639 31.9051 7.57054C29.3332 8.85403 26.7686 10.1498 24.2017 11.4382C25.4901 8.87124 26.7859 6.30672 28.0693 3.73728C27.526 3.32667 26.9531 2.96031 26.3802 2.59395C25.1294 5.0888 23.8763 7.58201 22.6207 10.0736C22.3035 10.708 21.883 11.3595 21.9617 12.1021C21.9933 12.5111 22.1699 12.8955 22.4598 13.1858C22.7497 13.4761 23.1337 13.6534 23.5427 13.6856C24.2803 13.7569 24.9368 13.3413 25.5737 13.0241C28.0652 11.7685 30.5568 10.5145 33.0484 9.26219L33.0459 9.25973Z" fill="#2BD1FF"/>
<path d="M8.75121 33.555C8.17831 33.1886 7.60787 32.8173 7.06201 32.4141C8.3455 29.8422 9.64129 27.2777 10.9297 24.7107C8.36026 25.9991 5.79819 27.2949 3.22876 28.5784C2.81814 28.035 2.45178 27.4621 2.08542 26.8892C4.58027 25.6385 7.07349 24.3853 9.56507 23.1297C10.1994 22.8125 10.851 22.3921 11.5936 22.4708C12.0026 22.5023 12.387 22.6789 12.6773 22.9688C12.9676 23.2587 13.1448 23.6428 13.177 24.0518C13.2483 24.7894 12.8328 25.4459 12.5156 26.0827C11.26 28.5743 10.006 31.0659 8.75366 33.5574L8.75121 33.555Z" fill="#2BD1FF"/>
<path d="M34.7447 22.788C34.8897 22.1241 35.0348 21.4602 35.1307 20.7865C32.4063 19.8768 29.6771 18.9793 26.9527 18.0818C29.6771 17.177 32.4063 16.2795 35.1307 15.3772C35.0348 14.7035 34.8848 14.0396 34.7447 13.3757C32.0957 14.2461 29.4476 15.1206 26.8003 15.9992C26.129 16.2255 25.3742 16.3927 24.8996 16.968C24.633 17.2798 24.4865 17.6765 24.4865 18.0868C24.4865 18.497 24.633 18.8938 24.8996 19.2055C25.3742 19.7833 26.129 19.9431 26.8003 20.1743C29.4542 21.0463 32.1039 21.9217 34.7496 22.8003L34.7447 22.788Z" fill="#5646A5"/>
<path d="M0.386031 22.7879C0.245879 22.124 0.0958929 21.4601 0 20.7864C2.72434 19.8767 5.4536 18.9792 8.18041 18.0818C5.4536 17.1695 2.72434 16.2721 0 15.3623C0.0958929 14.6886 0.245879 14.0321 0.386031 13.3609C3.03661 14.2411 5.68719 15.1205 8.33777 15.9992C9.00902 16.2254 9.76387 16.3926 10.2384 16.9679C10.5051 17.2797 10.6516 17.6764 10.6516 18.0867C10.6516 18.4969 10.5051 18.8937 10.2384 19.2054C9.76387 19.7832 9.00902 19.9431 8.33777 20.1742C5.68555 21.0397 3.03579 21.9109 0.388489 22.7879H0.386031Z" fill="#5646A5"/>
<path d="M26.3806 33.555C26.9535 33.1886 27.5264 32.8173 28.0698 32.4141C26.7863 29.8422 25.4905 27.2777 24.2021 24.7107C26.7691 25.9991 29.3336 27.2949 31.9055 28.5784C32.3136 28.035 32.68 27.4621 33.0463 26.8892C30.5515 25.6385 28.0599 24.3853 25.5716 23.1297C24.9348 22.8125 24.2832 22.3921 23.5407 22.4708C23.132 22.5029 22.7483 22.6798 22.4585 22.9696C22.1687 23.2594 21.9918 23.6431 21.9597 24.0518C21.8859 24.7894 22.3014 25.4459 22.6186 26.0827C23.8759 28.5743 25.1307 31.0659 26.383 33.5574L26.3806 33.555Z" fill="#FFBC2E"/>
<path d="M2.08542 9.25973C2.45178 8.68683 2.82305 8.11639 3.22876 7.57054C5.79819 8.85403 8.36026 10.1498 10.9297 11.4382C9.64129 8.86878 8.3455 6.30672 7.06201 3.73728C7.60787 3.32667 8.17831 2.96031 8.75121 2.59395C10.0019 5.0888 11.2567 7.58201 12.5156 10.0736C12.8328 10.708 13.2533 11.3595 13.177 12.1021C13.1454 12.5115 12.9684 12.8962 12.678 13.1866C12.3877 13.4769 12.003 13.6539 11.5936 13.6856C10.8559 13.7569 10.1994 13.3413 9.56507 13.0241C7.07185 11.7685 4.57945 10.5145 2.08788 9.26219L2.08542 9.25973Z" fill="#FFBC2E"/>
<path d="M44.2695 16.9338V5.51514H48.5503C49.3176 5.49 50.0788 5.65916 50.7632 6.0069C51.3373 6.31217 51.8085 6.78002 52.118 7.35185C52.4304 7.95101 52.5885 8.61865 52.5778 9.2943C52.5903 9.97358 52.4313 10.645 52.1155 11.2466C51.8024 11.8186 51.3266 12.285 50.7485 12.5866C50.0632 12.9322 49.3026 13.1012 48.5355 13.0784H45.6833V11.3744H48.2429C48.6792 11.3918 49.1128 11.2997 49.5043 11.1064C49.8168 10.9418 50.0703 10.684 50.2296 10.3688C50.3967 10.0347 50.481 9.66534 50.4755 9.29184C50.4811 8.92069 50.3968 8.55371 50.2296 8.22227C50.0668 7.9097 49.8083 7.6573 49.492 7.50184C49.0975 7.31303 48.6628 7.22355 48.2257 7.24121H46.33V16.9338H44.2695Z" fill="#F5F5F5"/>
<path d="M56.4182 17.1054C55.9111 17.1149 55.4079 17.0151 54.9429 16.8128C54.524 16.6283 54.1671 16.327 53.9151 15.9449C53.6562 15.5183 53.5295 15.0246 53.5512 14.5261C53.5361 14.1117 53.6275 13.7002 53.8168 13.3312C53.9931 13.0193 54.2473 12.7584 54.5544 12.5739C54.8789 12.3777 55.2312 12.2318 55.5994 12.1411C55.9962 12.0413 56.3997 11.9699 56.8067 11.9272C57.2984 11.8731 57.7164 11.8264 58.036 11.7846C58.2743 11.7637 58.5059 11.6952 58.7171 11.583C58.7881 11.5381 58.8457 11.4748 58.8837 11.4C58.9218 11.3251 58.939 11.2414 58.9335 11.1576V11.1232C58.9453 10.942 58.9181 10.7604 58.8536 10.5908C58.7891 10.4211 58.6889 10.2672 58.5598 10.1397C58.2577 9.892 57.8725 9.76889 57.4828 9.79542C57.0673 9.77323 56.6558 9.88624 56.31 10.1175C56.0426 10.3074 55.8394 10.5741 55.7272 10.8822L53.8438 10.6142C53.9756 10.123 54.2293 9.67307 54.5814 9.30612C54.9333 8.94973 55.3624 8.67887 55.8354 8.51439C56.3631 8.33387 56.9178 8.24489 57.4754 8.2513C57.8895 8.25088 58.3022 8.29958 58.7048 8.39637C59.0991 8.48926 59.4743 8.64982 59.8138 8.87092C60.1569 9.09788 60.4375 9.40729 60.6301 9.77083C60.8545 10.2136 60.9636 10.7058 60.9473 11.2018V16.9333H59.0073V15.7555H58.9384C58.8078 16.0063 58.6339 16.2319 58.4245 16.4219C58.1822 16.6384 57.8999 16.8055 57.5935 16.9136C57.2162 17.0469 56.8182 17.1119 56.4182 17.1054ZM56.9419 15.6301C57.3079 15.6389 57.6701 15.5543 57.9943 15.3843C58.278 15.2361 58.5161 15.0134 58.6827 14.74C58.8448 14.477 58.93 14.1737 58.9286 13.8647V12.8566C58.8319 12.9243 58.7236 12.9735 58.6089 13.0017C58.4422 13.0495 58.2731 13.0889 58.1024 13.1197L57.5517 13.2082L57.0771 13.2746C56.8013 13.3097 56.5305 13.3774 56.2706 13.4762C56.0524 13.5534 55.8583 13.6865 55.7076 13.8623C55.5456 14.0869 55.476 14.3651 55.5131 14.6396C55.5501 14.9141 55.691 15.1639 55.9067 15.3375C56.2141 15.5372 56.5757 15.6368 56.9419 15.6228V15.6301Z" fill="#F5F5F5"/>
<path d="M66.5486 20.2878C65.9137 20.3024 65.2811 20.205 64.6799 20.0001C64.2098 19.8368 63.7816 19.5714 63.426 19.2232C63.1258 18.9253 62.9008 18.5604 62.7695 18.1585L64.5865 17.7233C64.6827 17.8965 64.8028 18.0554 64.943 18.1954C65.1228 18.3736 65.3381 18.5118 65.5749 18.6011C65.8971 18.721 66.2395 18.777 66.583 18.7658C67.089 18.7853 67.5876 18.6404 68.0042 18.3527C68.378 18.0798 68.5673 17.6348 68.5673 17.0225V15.3997H68.4665C68.3438 15.6328 68.1909 15.8486 68.0116 16.0415C67.79 16.2772 67.5221 16.4647 67.2248 16.5922C66.8357 16.7537 66.4165 16.83 65.9954 16.816C65.3683 16.8247 64.7505 16.6633 64.2079 16.3488C63.657 16.0194 63.215 15.5355 62.9367 14.9572C62.5997 14.2286 62.4388 13.4309 62.467 12.6287C62.4415 11.8092 62.6021 10.9946 62.9367 10.2461C63.2128 9.64357 63.6545 9.13193 64.2103 8.77084C64.7461 8.43417 65.3676 8.25916 66.0003 8.26678C66.4238 8.24982 66.8453 8.33411 67.2297 8.51266C67.5339 8.65757 67.8051 8.86345 68.0264 9.11752C68.1982 9.32201 68.3458 9.54559 68.4665 9.78386H68.5698V8.37989H70.5614V17.0717C70.5876 17.7093 70.4064 18.3382 70.045 18.8642C69.6806 19.3523 69.1828 19.7246 68.6116 19.9362C67.9518 20.1807 67.2522 20.3 66.5486 20.2878ZM66.5658 15.2276C66.9532 15.2386 67.3346 15.1296 67.6575 14.9154C67.9703 14.691 68.2091 14.3785 68.3435 14.0179C68.5104 13.5683 68.5897 13.0909 68.5771 12.6115C68.5873 12.13 68.5089 11.6508 68.346 11.1977C68.2141 10.8242 67.9787 10.4959 67.6674 10.251C67.3381 10.028 66.9489 9.91002 66.5512 9.91266C66.1536 9.91529 65.766 10.0384 65.4397 10.2658C65.1266 10.5156 64.8905 10.8489 64.7586 11.2272C64.6001 11.6712 64.5226 12.1401 64.53 12.6115C64.5208 13.08 64.5992 13.5461 64.7611 13.9859C64.8949 14.3516 65.1335 14.6697 65.4471 14.9006C65.7753 15.1267 66.1675 15.2414 66.5658 15.2276Z" fill="#F5F5F5"/>
<path d="M73.5316 7.14979C73.2244 7.15494 72.9272 7.0403 72.703 6.83015C72.5948 6.73197 72.5083 6.61223 72.4491 6.47863C72.3899 6.34503 72.3594 6.20052 72.3594 6.0544C72.3594 5.90828 72.3899 5.76378 72.4491 5.63018C72.5083 5.49658 72.5948 5.37684 72.703 5.27865C72.9289 5.07477 73.2224 4.96191 73.5267 4.96191C73.831 4.96191 74.1245 5.07477 74.3504 5.27865C74.4579 5.37724 74.5438 5.49711 74.6026 5.63066C74.6613 5.7642 74.6916 5.90851 74.6916 6.0544C74.6916 6.2003 74.6613 6.3446 74.6026 6.47815C74.5438 6.61169 74.4579 6.73157 74.3504 6.83015C74.1291 7.03858 73.8356 7.15315 73.5316 7.14979ZM72.5186 16.9284V8.37919H74.5348V16.9333L72.5186 16.9284Z" fill="#F5F5F5"/>
<path d="M76.4844 16.9341V8.37999H78.4391V9.80609H78.5301C78.662 9.34545 78.9452 8.94267 79.3341 8.66275C79.7163 8.3926 80.1742 8.25056 80.6422 8.25705C80.752 8.25705 80.8774 8.26197 81.0184 8.2718C81.1356 8.27804 81.2522 8.292 81.3675 8.3136V10.17C81.235 10.1308 81.0992 10.1037 80.9618 10.0888C80.7858 10.0648 80.6084 10.0524 80.4307 10.052C80.0874 10.0495 79.749 10.1341 79.4472 10.2978C79.1627 10.4495 78.9248 10.6756 78.7588 10.9519C78.5896 11.2444 78.5045 11.5779 78.5129 11.9157V16.9341H76.4844Z" fill="#F5F5F5"/>
<path d="M84.5123 11.9158V16.9342H82.4961V8.38006H84.4238V9.83567H84.5246C84.7133 9.36597 85.0432 8.96647 85.4688 8.69233C85.9515 8.39629 86.5109 8.24918 87.0768 8.26942C87.6168 8.25606 88.1506 8.38676 88.6234 8.64807C89.0679 8.90378 89.4258 9.28652 89.6512 9.74715C89.9077 10.2914 90.0308 10.8891 90.0102 11.4904V16.9342H87.994V11.7929C88.0232 11.3053 87.8649 10.8249 87.5514 10.4504C87.3946 10.2839 87.2034 10.1536 86.991 10.0687C86.7787 9.98372 86.5503 9.94616 86.322 9.95861C85.9927 9.95661 85.6688 10.0414 85.3827 10.2045C85.1083 10.3592 84.8852 10.5908 84.741 10.8708C84.5809 11.1954 84.5024 11.5541 84.5123 11.9158Z" fill="#F5F5F5"/>
<path d="M96.0006 8.37973V9.94107H91.083V8.37973H96.0006ZM92.2927 6.3291H94.3114V14.3571C94.2991 14.5717 94.3423 14.786 94.4368 14.9791C94.5109 15.1099 94.6283 15.2107 94.7687 15.2643C94.9152 15.3179 95.0701 15.3446 95.2261 15.343C95.3431 15.3438 95.46 15.334 95.5752 15.3135C95.6809 15.2963 95.7621 15.2791 95.8211 15.2643L96.1629 16.8429C96.0118 16.8909 95.8583 16.9311 95.7031 16.9634C95.4605 17.0143 95.2133 17.0407 94.9654 17.0421C94.4984 17.064 94.0322 16.9852 93.5984 16.8109C93.2057 16.6507 92.8706 16.3756 92.637 16.0217C92.3891 15.6209 92.2675 15.1549 92.2878 14.6841L92.2927 6.3291Z" fill="#F5F5F5"/>
<path d="M99.4278 11.9149V16.9333H97.4092V5.51465H99.3762V9.82491H99.477C99.6648 9.3569 99.9907 8.95721 100.411 8.67911C100.895 8.38162 101.457 8.23522 102.024 8.25866C102.569 8.24142 103.108 8.36777 103.588 8.62502C104.033 8.87721 104.391 9.25769 104.616 9.71672C104.874 10.2651 104.999 10.8666 104.98 11.4723V16.9333H102.964V11.7919C102.993 11.3032 102.834 10.8218 102.519 10.447C102.361 10.2818 102.169 10.1524 101.957 10.0676C101.745 9.98274 101.517 9.94442 101.289 9.95522C100.955 9.95364 100.625 10.0383 100.333 10.2011C100.053 10.3537 99.8246 10.5855 99.6762 10.8674C99.5056 11.1897 99.4201 11.5503 99.4278 11.9149Z" fill="#F5F5F5"/>
<path d="M107.91 7.14998C107.603 7.15564 107.306 7.04093 107.082 6.83034C106.974 6.73195 106.888 6.61214 106.829 6.47857C106.77 6.345 106.739 6.2006 106.739 6.05459C106.739 5.90858 106.77 5.76418 106.829 5.6306C106.888 5.49703 106.974 5.37723 107.082 5.27884C107.305 5.06839 107.601 4.95365 107.908 4.9592C108.213 4.95336 108.508 5.06823 108.729 5.27884C108.837 5.37743 108.923 5.4973 108.981 5.63084C109.04 5.76439 109.07 5.90869 109.07 6.05459C109.07 6.20048 109.04 6.34479 108.981 6.47833C108.923 6.61188 108.837 6.73175 108.729 6.83034C108.508 7.03944 108.214 7.15411 107.91 7.14998ZM106.895 16.9286V8.37937H108.894V16.9335L106.895 16.9286Z" fill="#F5F5F5"/>
<path d="M114.001 17.0833C113.361 17.0921 112.732 16.9116 112.194 16.5645C111.64 16.192 111.204 15.6702 110.935 15.0597C110.606 14.3044 110.447 13.4859 110.47 12.6624C110.445 11.8332 110.607 11.0089 110.942 10.2503C111.217 9.64685 111.659 9.13485 112.216 8.77501C112.752 8.43834 113.373 8.26333 114.006 8.27095C114.43 8.25332 114.851 8.33765 115.235 8.51683C115.538 8.65913 115.807 8.86356 116.025 9.11678C116.195 9.3225 116.342 9.54589 116.465 9.78311H116.548V5.51465H118.572V16.9333H116.588V15.5834H116.465C116.338 15.8231 116.182 16.0461 116 16.2473C115.782 16.4948 115.517 16.6962 115.221 16.8398C114.839 17.0157 114.421 17.0991 114.001 17.0833ZM114.564 15.426C114.957 15.4365 115.341 15.3144 115.656 15.0793C115.972 14.8223 116.21 14.4815 116.342 14.0958C116.506 13.6284 116.585 13.1355 116.575 12.6402C116.586 12.1491 116.508 11.6601 116.344 11.1969C116.213 10.8206 115.976 10.4897 115.663 10.2429C115.336 10.0227 114.95 9.90616 114.555 9.90835C114.16 9.91054 113.775 10.0314 113.45 10.2552C113.135 10.5074 112.899 10.8444 112.769 11.2264C112.61 11.6804 112.532 12.1591 112.541 12.6402C112.532 13.1272 112.61 13.6117 112.772 14.0712C112.904 14.4566 113.142 14.7972 113.458 15.0548C113.773 15.3023 114.164 15.4335 114.564 15.426Z" fill="#F5F5F5"/>
<path d="M125.981 13.3309V8.37891H127.999V16.933H126.032V15.411H125.944C125.751 15.8888 125.419 16.298 124.992 16.5864C124.511 16.9034 123.943 17.0632 123.367 17.0437C122.851 17.0523 122.341 16.9224 121.892 16.6675C121.455 16.4091 121.105 16.0265 120.886 15.5684C120.629 15.0225 120.504 14.4235 120.522 13.8202V8.37891H122.541V13.5104C122.517 13.9821 122.676 14.4448 122.986 14.8013C123.135 14.9627 123.316 15.0902 123.519 15.1751C123.721 15.2599 123.939 15.3002 124.159 15.293C124.46 15.2925 124.756 15.2182 125.022 15.0767C125.306 14.9266 125.544 14.7022 125.71 14.4275C125.903 14.0953 125.997 13.7148 125.981 13.3309Z" fill="#F5F5F5"/>
<path d="M43.9824 31.062V22.498H49.468V23.7987H45.5339V26.1223H49.0967V27.423H45.5388V31.062H43.9824Z" fill="#F5F5F5"/>
<path d="M53.3251 31.1871C52.7537 31.202 52.1894 31.0581 51.6949 30.7716C51.235 30.4965 50.8644 30.0943 50.6278 29.6135C50.3776 29.0672 50.248 28.4735 50.248 27.8727C50.248 27.2718 50.3776 26.6781 50.6278 26.1318C50.8636 25.6492 51.2343 25.2452 51.6949 24.9688C52.1955 24.6977 52.7558 24.5557 53.3251 24.5557C53.8944 24.5557 54.4547 24.6977 54.9553 24.9688C55.4179 25.245 55.791 25.6488 56.0298 26.1318C56.28 26.6781 56.4095 27.2718 56.4095 27.8727C56.4095 28.4735 56.28 29.0672 56.0298 29.6135C55.7915 30.094 55.4203 30.4959 54.9602 30.7716C54.4642 31.059 53.8981 31.2029 53.3251 31.1871ZM53.3251 29.9749C53.634 29.9844 53.9362 29.8842 54.1783 29.6922C54.4143 29.4897 54.591 29.2272 54.6897 28.9324C54.916 28.2406 54.916 27.4948 54.6897 26.8031C54.591 26.5069 54.4143 26.2427 54.1783 26.0384C53.9368 25.8452 53.6342 25.7449 53.3251 25.7556C53.0113 25.7433 52.7034 25.8436 52.4571 26.0384C52.2188 26.2412 52.041 26.5058 51.9433 26.8031C51.717 27.4948 51.717 28.2406 51.9433 28.9324C52.0411 29.2283 52.219 29.4912 52.4571 29.6922C52.708 29.8892 53.0212 29.9895 53.3398 29.9749H53.3251Z" fill="#F5F5F5"/>
<path d="M61.6859 28.3598V24.6396H63.1981V31.062H61.7228V29.9187H61.6564C61.5123 30.2776 61.2639 30.585 60.9434 30.8014C60.5797 31.042 60.1497 31.1624 59.714 31.1456C59.3233 31.1529 58.9378 31.0553 58.5977 30.8629C58.2706 30.6685 58.008 30.382 57.8429 30.0392C57.6526 29.6291 57.56 29.1805 57.5724 28.7286V24.6396H59.0845V28.495C59.0667 28.849 59.1865 29.1962 59.4189 29.4638C59.5312 29.5834 59.668 29.6774 59.8199 29.7393C59.9718 29.8013 60.1353 29.8298 60.2992 29.8228C60.5247 29.8219 60.7466 29.7662 60.9459 29.6605C61.1597 29.5469 61.3383 29.3768 61.4622 29.1687C61.6119 28.9257 61.6895 28.6452 61.6859 28.3598Z" fill="#F5F5F5"/>
<path d="M66.2168 27.2976V31.062H64.7021V24.6396H66.1504V25.7313H66.2241C66.3667 25.3788 66.615 25.079 66.9347 24.8732C67.2965 24.6515 67.7155 24.5412 68.1395 24.556C68.5471 24.5448 68.9502 24.6424 69.3075 24.8388C69.6395 25.0316 69.9072 25.3181 70.0771 25.6625C70.2699 26.0717 70.3626 26.5209 70.3475 26.973V31.062H68.8157V27.2066C68.8374 26.8406 68.7187 26.48 68.4838 26.1985C68.3683 26.0781 68.2286 25.9837 68.0739 25.9213C67.9192 25.859 67.753 25.8303 67.5863 25.837C67.3399 25.8325 67.0965 25.8927 66.8806 26.0116C66.6765 26.1255 66.5099 26.2964 66.4012 26.5034C66.2745 26.7486 66.2111 27.0216 66.2168 27.2976Z" fill="#F5F5F5"/>
<path d="M74.1866 31.1751C73.7062 31.1821 73.2346 31.046 72.8318 30.7842C72.416 30.5055 72.0885 30.114 71.8876 29.6556C71.6415 29.0892 71.5232 28.4755 71.5409 27.8582C71.5223 27.2369 71.6433 26.6193 71.895 26.051C72.0984 25.5945 72.4298 25.2067 72.849 24.9347C73.2506 24.6815 73.7168 24.55 74.1915 24.5561C74.5112 24.5443 74.829 24.6092 75.1185 24.7454C75.3405 24.8565 75.5372 25.0122 75.6963 25.2027C75.824 25.3539 75.9345 25.5189 76.0258 25.6945H76.0897V22.498H77.6068V31.062H76.1192V30.049H76.0258C75.9341 30.2261 75.8209 30.3913 75.6889 30.5408C75.5254 30.7266 75.3265 30.8779 75.1037 30.9858C74.817 31.1197 74.5029 31.1846 74.1866 31.1751ZM74.6095 29.9457C74.9044 29.9538 75.1933 29.861 75.4283 29.6826C75.667 29.4914 75.8455 29.2352 75.9422 28.945C76.1766 28.2386 76.1766 27.4754 75.9422 26.769C75.8439 26.4876 75.6673 26.2403 75.4332 26.0559C75.1928 25.8844 74.9021 25.7978 74.607 25.81C74.3035 25.7997 74.0054 25.8924 73.7612 26.0731C73.5252 26.2659 73.3487 26.5217 73.2523 26.8108C73.0211 27.5034 73.0211 28.2524 73.2523 28.945C73.3521 29.2336 73.53 29.489 73.7661 29.6826C74.0101 29.8607 74.3079 29.9493 74.6095 29.9334V29.9457Z" fill="#F5F5F5"/>
<path d="M80.9725 31.1897C80.5947 31.1967 80.2198 31.122 79.8734 30.9709C79.5591 30.8341 79.2916 30.6085 79.1038 30.3217C78.9084 30.0028 78.811 29.6334 78.8235 29.2596C78.8119 28.9475 78.8805 28.6377 79.0227 28.3596C79.1543 28.1269 79.343 27.9314 79.571 27.7917C79.8142 27.6438 80.0788 27.5344 80.3554 27.4671C80.6526 27.3917 80.9551 27.3383 81.2602 27.3073C81.6364 27.2679 81.9413 27.231 82.1749 27.1991C82.3546 27.1846 82.5295 27.1336 82.6888 27.0491C82.7413 27.0148 82.7839 26.9671 82.8119 26.9109C82.84 26.8548 82.8527 26.7921 82.8486 26.7295V26.7049C82.8573 26.569 82.8368 26.4329 82.7885 26.3056C82.7401 26.1784 82.665 26.063 82.5683 25.9672C82.3403 25.786 82.0521 25.6981 81.7618 25.7214C81.4495 25.7063 81.1408 25.7926 80.8815 25.9672C80.681 26.1095 80.5284 26.3093 80.4439 26.5401L79.0325 26.341C79.1303 25.9719 79.3197 25.6336 79.5833 25.3575C79.8472 25.0898 80.1695 24.887 80.525 24.7649C80.9202 24.6278 81.3362 24.5604 81.7544 24.5657C82.0649 24.5664 82.3743 24.6027 82.6765 24.6739C82.9752 24.7436 83.2596 24.8642 83.5174 25.0304C83.7746 25.2012 83.9851 25.4337 84.1296 25.7066C84.2997 26.0361 84.3842 26.403 84.3755 26.7737V31.0717H82.9199V30.189H82.8707C82.7698 30.3736 82.6385 30.5398 82.4822 30.6807C82.2976 30.8449 82.0819 30.9703 81.8478 31.0495C81.5668 31.1481 81.2703 31.1956 80.9725 31.1897ZM81.3659 30.0783C81.6401 30.0846 81.9115 30.0221 82.1552 29.8964C82.3691 29.7828 82.5477 29.6127 82.6715 29.4046C82.7914 29.2067 82.8543 28.9795 82.8535 28.7481V28.0007C82.7796 28.0529 82.696 28.0896 82.6076 28.1088C82.4833 28.146 82.3569 28.1756 82.229 28.1974C82.0913 28.2219 81.9511 28.2441 81.8159 28.2637L81.4594 28.3154C81.2522 28.3397 81.049 28.3901 80.8545 28.4654C80.691 28.5242 80.5453 28.6241 80.4316 28.7555C80.3089 28.924 80.256 29.1335 80.2839 29.3401C80.3118 29.5467 80.4185 29.7345 80.5816 29.8644C80.8114 30.0142 81.082 30.0889 81.3561 30.0783H81.3659Z" fill="#F5F5F5"/>
<path d="M88.9148 24.6398V25.8102H85.2266V24.6398H88.9148ZM86.1363 23.1006H87.6485V29.1295C87.6397 29.2907 87.6719 29.4514 87.7419 29.5967C87.7963 29.6957 87.8831 29.773 87.9878 29.8155C88.0971 29.8563 88.213 29.8763 88.3296 29.8746C88.4169 29.8753 88.5042 29.8679 88.5902 29.8524C88.6713 29.8524 88.7303 29.8254 88.7721 29.8155L89.018 30.9982C88.9369 31.0253 88.8213 31.0572 88.6738 31.0917C88.494 31.1272 88.3112 31.1462 88.1279 31.1482C87.7778 31.1646 87.4282 31.1059 87.1026 30.9761C86.8083 30.8557 86.5572 30.6491 86.3822 30.3835C86.1956 30.0833 86.1047 29.7334 86.1216 29.3803L86.1363 23.1006Z" fill="#F5F5F5"/>
<path d="M90.7537 23.7275C90.6393 23.7294 90.5257 23.7087 90.4193 23.6665C90.313 23.6243 90.216 23.5615 90.1341 23.4817C90.0525 23.4086 89.9873 23.3191 89.9427 23.2191C89.8981 23.1191 89.875 23.0109 89.875 22.9014C89.875 22.7919 89.8981 22.6836 89.9427 22.5837C89.9873 22.4837 90.0525 22.3942 90.1341 22.3211C90.3018 22.1673 90.5212 22.082 90.7488 22.082C90.9763 22.082 91.1957 22.1673 91.3635 22.3211C91.4446 22.3944 91.5095 22.4839 91.5539 22.5839C91.5983 22.6839 91.6213 22.792 91.6213 22.9014C91.6213 23.0108 91.5983 23.1189 91.5539 23.2189C91.5095 23.3188 91.4446 23.4084 91.3635 23.4817C91.283 23.5607 91.1877 23.6231 91.083 23.6653C90.9784 23.7075 90.8665 23.7287 90.7537 23.7275ZM89.9939 31.0621V24.6398H91.5061V31.0621H89.9939Z" fill="#F5F5F5"/>
<path d="M95.7787 31.1871C95.2074 31.202 94.6431 31.0581 94.1485 30.7716C93.6885 30.4959 93.3173 30.094 93.079 29.6135C92.8287 29.0672 92.6992 28.4735 92.6992 27.8727C92.6992 27.2718 92.8287 26.6781 93.079 26.1318C93.3144 25.6504 93.683 25.2468 94.1412 24.9688C94.6417 24.6977 95.2021 24.5557 95.7714 24.5557C96.3407 24.5557 96.901 24.6977 97.4015 24.9688C97.8622 25.2452 98.2329 25.6492 98.4686 26.1318C98.7189 26.6781 98.8484 27.2718 98.8484 27.8727C98.8484 28.4735 98.7189 29.0672 98.4686 29.6135C98.2321 30.0943 97.8615 30.4965 97.4015 30.7716C96.9092 31.0568 96.3476 31.2006 95.7787 31.1871ZM95.7787 29.9749C96.0877 29.9848 96.3901 29.8846 96.6319 29.6922C96.8694 29.4911 97.0464 29.2281 97.1434 28.9324C97.3696 28.2406 97.3696 27.4948 97.1434 26.8031C97.0466 26.5059 96.8696 26.2413 96.6319 26.0384C96.3907 25.8448 96.0879 25.7444 95.7787 25.7556C95.465 25.7437 95.1573 25.8439 94.9108 26.0384C94.6732 26.2419 94.4955 26.5062 94.3969 26.8031C94.1707 27.4948 94.1707 28.2406 94.3969 28.9324C94.4956 29.2278 94.6733 29.4906 94.9108 29.6922C95.1598 29.8871 95.47 29.9873 95.7861 29.9749H95.7787Z" fill="#F5F5F5"/>
<path d="M101.57 27.2973V31.0617H100.056V24.6394H101.501V25.7311H101.578C101.718 25.3782 101.966 25.0782 102.286 24.873C102.646 24.6526 103.063 24.5424 103.486 24.5558C103.891 24.5461 104.291 24.6437 104.646 24.8385C104.978 25.0321 105.245 25.3185 105.416 25.6622C105.608 26.0717 105.7 26.5209 105.684 26.9728V31.0617H104.172V27.2064C104.194 26.8399 104.074 26.479 103.837 26.1983C103.72 26.0747 103.577 25.9782 103.419 25.9154C103.26 25.8526 103.09 25.8249 102.92 25.8344C102.675 25.8299 102.432 25.8901 102.217 26.0089C102.008 26.1205 101.837 26.2916 101.725 26.5007C101.608 26.7493 101.555 27.0231 101.57 27.2973Z" fill="#F5F5F5"/>
</g>
<defs>
<clipPath id="clip0_646_555">
<rect width="128" height="35.1313" fill="white" transform="translate(0 0.508789)"/>
</clipPath>
</defs>
</svg>
