<svg width="264" height="52" viewBox="0 0 264 52" fill="none" xmlns="http://www.w3.org/2000/svg">
<rect x="0.5" y="0.5" width="263" height="51" rx="7.5" stroke="#D0D5DD"/>
<path d="M56.5005 15.2857C50.5831 15.2857 45.7862 20.0827 45.7862 26C45.7862 31.9173 50.5831 36.7143 56.5005 36.7143C62.4178 36.7143 67.2147 31.9173 67.2147 26C67.2147 20.0827 62.4178 15.2857 56.5005 15.2857Z" fill="#3B5998" stroke="white" stroke-width="1.42857"/>
<path d="M57.5426 31.8798V26.4392H59.0444L59.2435 24.5644H57.5426L57.5452 23.626C57.5452 23.1371 57.5916 22.875 58.294 22.875H59.2328V21H57.7308C55.9266 21 55.2916 21.9095 55.2916 23.439V24.5646H54.167V26.4395H55.2916V31.8798H57.5426Z" fill="white"/>
<path d="M71.5 15.2857C65.5827 15.2857 60.7857 20.0827 60.7857 26C60.7857 31.9173 65.5827 36.7143 71.5 36.7143C77.4173 36.7143 82.2142 31.9173 82.2142 26C82.2142 20.0827 77.4173 15.2857 71.5 15.2857Z" fill="#55ACEE" stroke="white" stroke-width="1.42857"/>
<path d="M71.1995 24.1281L71.2205 24.4741L70.8708 24.4318C69.5977 24.2694 68.4855 23.7185 67.5412 22.7935L67.0796 22.3345L66.9607 22.6734C66.7089 23.429 66.8697 24.227 67.3944 24.7637C67.6741 25.0603 67.6112 25.1026 67.1286 24.9261C66.9607 24.8696 66.8138 24.8272 66.7998 24.8484C66.7508 24.8978 66.9187 25.5405 67.0516 25.7947C67.2335 26.1478 67.6042 26.4938 68.0099 26.6986L68.3526 26.861L67.9469 26.8681C67.5552 26.8681 67.5412 26.8751 67.5832 27.0234C67.7231 27.4824 68.2757 27.9697 68.8912 28.1815L69.3249 28.3298L68.9472 28.5558C68.3876 28.8806 67.7301 29.0642 67.0726 29.0784C66.7578 29.0854 66.499 29.1137 66.499 29.1349C66.499 29.2055 67.3524 29.6009 67.849 29.7563C69.3389 30.2153 71.1086 30.0176 72.4376 29.2337C73.3819 28.6758 74.3262 27.5672 74.7668 26.4938C75.0047 25.9218 75.2425 24.8767 75.2425 24.3753C75.2425 24.0504 75.2635 24.0081 75.6552 23.6197C75.886 23.3937 76.1028 23.1465 76.1448 23.0759C76.2148 22.9418 76.2078 22.9418 75.851 23.0618C75.2565 23.2737 75.1725 23.2454 75.4663 22.9276C75.6832 22.7017 75.942 22.2921 75.942 22.172C75.942 22.1509 75.837 22.1862 75.7181 22.2497C75.5922 22.3203 75.3124 22.4263 75.1026 22.4898L74.7249 22.6099L74.3821 22.3768C74.1933 22.2497 73.9275 22.1085 73.7876 22.0661C73.4308 21.9672 72.8853 21.9814 72.5635 22.0944C71.6891 22.4121 71.1366 23.2313 71.1995 24.1281Z" fill="white"/>
<path d="M86.5005 36.7143C92.4178 36.7143 97.2147 31.9173 97.2147 26C97.2147 20.0827 92.4178 15.2857 86.5005 15.2857C80.5831 15.2857 75.7862 20.0827 75.7862 26C75.7862 31.9173 80.5831 36.7143 86.5005 36.7143Z" fill="#25D366" stroke="white" stroke-width="1.42857"/>
<path fill-rule="evenodd" clip-rule="evenodd" d="M86.8302 31.5639H86.8278C85.8326 31.5635 84.8547 31.3138 83.9862 30.8401L80.834 31.667L81.6776 28.5857C81.1572 27.6839 80.8834 26.6609 80.8838 25.6129C80.8851 22.3344 83.5527 19.667 86.8302 19.667C88.4209 19.6677 89.9139 20.2869 91.0365 21.4109C92.1592 22.5348 92.7771 24.0288 92.7765 25.6176C92.7752 28.8954 90.1087 31.5625 86.8302 31.5639ZM84.1325 29.7636L84.3129 29.8707C85.0718 30.321 85.9416 30.5592 86.8285 30.5596H86.8305C89.5545 30.5596 91.7716 28.3424 91.7727 25.6172C91.7732 24.2966 91.2597 23.0549 90.3265 22.1207C89.3934 21.1865 88.1525 20.6718 86.8324 20.6713C84.1062 20.6713 81.8891 22.8882 81.888 25.6132C81.8876 26.5471 82.1489 27.4566 82.6437 28.2435L82.7612 28.4304L82.2619 30.2542L84.1325 29.7636ZM89.6214 26.8979C89.725 26.948 89.795 26.9818 89.8249 27.0317C89.862 27.0936 89.862 27.3911 89.7383 27.7382C89.6144 28.0853 89.0209 28.402 88.7354 28.4447C88.4794 28.483 88.1555 28.4989 87.7996 28.3858C87.5838 28.3173 87.307 28.2259 86.9526 28.0728C85.5597 27.4714 84.6184 26.1214 84.4405 25.8662C84.428 25.8484 84.4193 25.8359 84.4144 25.8294L84.4132 25.8278C84.3346 25.7229 83.8077 25.0199 83.8077 24.2924C83.8077 23.608 84.1439 23.2493 84.2987 23.0841C84.3093 23.0728 84.319 23.0624 84.3277 23.0529C84.4639 22.9041 84.6249 22.867 84.7239 22.867C84.823 22.867 84.9221 22.8679 85.0087 22.8722C85.0194 22.8728 85.0305 22.8727 85.042 22.8726C85.1286 22.8721 85.2365 22.8715 85.343 23.1273C85.384 23.2257 85.4439 23.3717 85.5071 23.5256C85.635 23.8368 85.7762 24.1807 85.8011 24.2305C85.8382 24.3049 85.863 24.3916 85.8135 24.4908C85.806 24.5057 85.7992 24.5197 85.7926 24.5331C85.7554 24.6091 85.728 24.6649 85.6649 24.7386C85.6401 24.7676 85.6144 24.7989 85.5888 24.8301C85.5377 24.8924 85.4865 24.9546 85.442 24.9989C85.3677 25.073 85.2902 25.1534 85.3769 25.3022C85.4636 25.4509 85.7617 25.9374 86.2034 26.3314C86.6782 26.7549 87.0909 26.9339 87.3001 27.0247C87.3409 27.0424 87.374 27.0567 87.3983 27.0689C87.5468 27.1433 87.6335 27.1308 87.7202 27.0317C87.8068 26.9325 88.0916 26.5978 88.1906 26.4491C88.2896 26.3004 88.3887 26.3252 88.5249 26.3747C88.6611 26.4244 89.3916 26.7838 89.5402 26.8581C89.5692 26.8727 89.5963 26.8858 89.6214 26.8979Z" fill="#FDFDFD"/>
<path d="M111.121 22.719C111.065 22.817 111.004 22.8893 110.939 22.936C110.878 22.978 110.801 22.999 110.708 22.999C110.61 22.999 110.502 22.964 110.386 22.894C110.274 22.8193 110.138 22.7377 109.98 22.649C109.821 22.5603 109.634 22.481 109.42 22.411C109.21 22.3363 108.96 22.299 108.671 22.299C108.409 22.299 108.181 22.3317 107.985 22.397C107.789 22.4577 107.623 22.544 107.488 22.656C107.357 22.768 107.259 22.9033 107.194 23.062C107.128 23.216 107.096 23.3863 107.096 23.573C107.096 23.811 107.161 24.0093 107.292 24.168C107.427 24.3267 107.604 24.462 107.824 24.574C108.043 24.686 108.293 24.7863 108.573 24.875C108.853 24.9637 109.14 25.0593 109.434 25.162C109.728 25.26 110.015 25.3767 110.295 25.512C110.575 25.6427 110.824 25.8107 111.044 26.016C111.263 26.2167 111.438 26.464 111.569 26.758C111.704 27.052 111.772 27.409 111.772 27.829C111.772 28.2863 111.692 28.7157 111.534 29.117C111.38 29.5137 111.151 29.8613 110.848 30.16C110.549 30.454 110.183 30.6873 109.749 30.86C109.315 31.028 108.818 31.112 108.258 31.112C107.936 31.112 107.618 31.0793 107.306 31.014C106.993 30.9533 106.692 30.8647 106.403 30.748C106.118 30.6313 105.85 30.4913 105.598 30.328C105.346 30.1647 105.122 29.9827 104.926 29.782L105.479 28.879C105.525 28.8137 105.586 28.76 105.661 28.718C105.735 28.6713 105.815 28.648 105.899 28.648C106.015 28.648 106.141 28.697 106.277 28.795C106.412 28.8883 106.573 28.9933 106.76 29.11C106.946 29.2267 107.163 29.334 107.411 29.432C107.663 29.5253 107.964 29.572 108.314 29.572C108.85 29.572 109.266 29.446 109.56 29.194C109.854 28.9373 110.001 28.571 110.001 28.095C110.001 27.829 109.933 27.612 109.798 27.444C109.667 27.276 109.492 27.136 109.273 27.024C109.053 26.9073 108.804 26.8093 108.524 26.73C108.244 26.6507 107.959 26.5643 107.67 26.471C107.38 26.3777 107.096 26.2657 106.816 26.135C106.536 26.0043 106.286 25.834 106.067 25.624C105.847 25.414 105.67 25.1527 105.535 24.84C105.404 24.5227 105.339 24.133 105.339 23.671C105.339 23.3023 105.411 22.943 105.556 22.593C105.705 22.243 105.92 21.9327 106.2 21.662C106.48 21.3913 106.825 21.1743 107.236 21.011C107.646 20.8477 108.118 20.766 108.65 20.766C109.247 20.766 109.798 20.8593 110.302 21.046C110.806 21.2327 111.235 21.494 111.59 21.83L111.121 22.719ZM114.774 24.588C115.054 24.3267 115.362 24.1143 115.698 23.951C116.034 23.7877 116.429 23.706 116.881 23.706C117.273 23.706 117.621 23.7737 117.924 23.909C118.228 24.0397 118.48 24.2263 118.68 24.469C118.886 24.707 119.04 24.994 119.142 25.33C119.25 25.6613 119.303 26.0277 119.303 26.429V31H117.574V26.429C117.574 25.9903 117.474 25.652 117.273 25.414C117.073 25.1713 116.767 25.05 116.356 25.05C116.058 25.05 115.778 25.1177 115.516 25.253C115.255 25.3883 115.008 25.5727 114.774 25.806V31H113.045V20.598H114.774V24.588ZM124.742 27.934C124.242 27.9573 123.822 28.0017 123.482 28.067C123.141 28.1277 122.868 28.207 122.663 28.305C122.457 28.403 122.31 28.5173 122.222 28.648C122.133 28.7787 122.089 28.921 122.089 29.075C122.089 29.3783 122.177 29.5953 122.355 29.726C122.537 29.8567 122.772 29.922 123.062 29.922C123.416 29.922 123.722 29.859 123.979 29.733C124.24 29.6023 124.494 29.4063 124.742 29.145V27.934ZM120.78 24.819C121.606 24.063 122.6 23.685 123.762 23.685C124.182 23.685 124.557 23.755 124.889 23.895C125.22 24.0303 125.5 24.2217 125.729 24.469C125.957 24.7117 126.13 25.0033 126.247 25.344C126.368 25.6847 126.429 26.058 126.429 26.464V31H125.645C125.481 31 125.355 30.9767 125.267 30.93C125.178 30.8787 125.108 30.7783 125.057 30.629L124.903 30.111C124.721 30.2743 124.543 30.419 124.371 30.545C124.198 30.6663 124.018 30.769 123.832 30.853C123.645 30.937 123.444 31 123.23 31.042C123.02 31.0887 122.786 31.112 122.53 31.112C122.226 31.112 121.946 31.0723 121.69 30.993C121.433 30.909 121.211 30.7853 121.025 30.622C120.838 30.4587 120.693 30.2557 120.591 30.013C120.488 29.7703 120.437 29.488 120.437 29.166C120.437 28.984 120.467 28.8043 120.528 28.627C120.588 28.445 120.686 28.2723 120.822 28.109C120.962 27.9457 121.141 27.7917 121.361 27.647C121.58 27.5023 121.848 27.3763 122.166 27.269C122.488 27.1617 122.861 27.0753 123.286 27.01C123.71 26.94 124.196 26.898 124.742 26.884V26.464C124.742 25.9833 124.639 25.6287 124.434 25.4C124.228 25.1667 123.932 25.05 123.545 25.05C123.265 25.05 123.031 25.0827 122.845 25.148C122.663 25.2133 122.502 25.288 122.362 25.372C122.222 25.4513 122.093 25.5237 121.977 25.589C121.865 25.6543 121.739 25.687 121.599 25.687C121.477 25.687 121.375 25.6567 121.291 25.596C121.207 25.5307 121.139 25.456 121.088 25.372L120.78 24.819ZM129.688 25.064C129.912 24.6347 130.178 24.2987 130.486 24.056C130.794 23.8087 131.158 23.685 131.578 23.685C131.909 23.685 132.175 23.7573 132.376 23.902L132.264 25.197C132.241 25.281 132.206 25.3417 132.159 25.379C132.117 25.4117 132.059 25.428 131.984 25.428C131.914 25.428 131.809 25.4163 131.669 25.393C131.534 25.3697 131.401 25.358 131.27 25.358C131.079 25.358 130.908 25.386 130.759 25.442C130.61 25.498 130.474 25.5797 130.353 25.687C130.236 25.7897 130.131 25.9157 130.038 26.065C129.949 26.2143 129.865 26.3847 129.786 26.576V31H128.057V23.818H129.072C129.249 23.818 129.373 23.8507 129.443 23.916C129.513 23.9767 129.56 24.0887 129.583 24.252L129.688 25.064ZM137.702 26.583C137.702 26.359 137.669 26.149 137.604 25.953C137.543 25.7523 137.45 25.5773 137.324 25.428C137.198 25.2787 137.037 25.162 136.841 25.078C136.649 24.9893 136.425 24.945 136.169 24.945C135.669 24.945 135.275 25.0873 134.986 25.372C134.701 25.6567 134.519 26.0603 134.44 26.583H137.702ZM134.405 27.626C134.433 27.9947 134.498 28.3143 134.601 28.585C134.703 28.851 134.839 29.0727 135.007 29.25C135.175 29.4227 135.373 29.5533 135.602 29.642C135.835 29.726 136.092 29.768 136.372 29.768C136.652 29.768 136.892 29.7353 137.093 29.67C137.298 29.6047 137.475 29.5323 137.625 29.453C137.779 29.3737 137.912 29.3013 138.024 29.236C138.14 29.1707 138.252 29.138 138.36 29.138C138.504 29.138 138.612 29.1917 138.682 29.299L139.179 29.929C138.987 30.153 138.773 30.342 138.535 30.496C138.297 30.6453 138.047 30.7667 137.786 30.86C137.529 30.9487 137.265 31.0117 136.995 31.049C136.729 31.0863 136.47 31.105 136.218 31.105C135.718 31.105 135.254 31.0233 134.825 30.86C134.395 30.692 134.022 30.447 133.705 30.125C133.387 29.7983 133.138 29.397 132.956 28.921C132.774 28.4403 132.683 27.885 132.683 27.255C132.683 26.765 132.762 26.3053 132.921 25.876C133.079 25.442 133.306 25.0663 133.6 24.749C133.898 24.427 134.26 24.1727 134.685 23.986C135.114 23.7993 135.597 23.706 136.134 23.706C136.586 23.706 137.004 23.7783 137.387 23.923C137.769 24.0677 138.098 24.28 138.374 24.56C138.649 24.8353 138.864 25.176 139.018 25.582C139.176 25.9833 139.256 26.443 139.256 26.961C139.256 27.2223 139.228 27.3997 139.172 27.493C139.116 27.5817 139.008 27.626 138.85 27.626H134.405ZM153.925 23.818L151.643 31H150.257C150.099 31 149.989 30.8973 149.928 30.692L148.64 26.541C148.598 26.401 148.559 26.2633 148.521 26.128C148.489 25.988 148.461 25.848 148.437 25.708C148.409 25.848 148.377 25.9903 148.339 26.135C148.307 26.275 148.269 26.415 148.227 26.555L146.918 30.692C146.862 30.8973 146.739 31 146.547 31H145.217L142.942 23.818H144.321C144.447 23.818 144.555 23.8483 144.643 23.909C144.732 23.9697 144.79 24.0467 144.818 24.14L145.847 27.976C145.899 28.186 145.943 28.3913 145.98 28.592C146.022 28.7927 146.057 28.9933 146.085 29.194C146.137 28.9933 146.19 28.7927 146.246 28.592C146.307 28.3913 146.37 28.186 146.435 27.976L147.625 24.126C147.653 24.0327 147.707 23.9557 147.786 23.895C147.87 23.8343 147.971 23.804 148.087 23.804H148.85C148.972 23.804 149.074 23.8343 149.158 23.895C149.247 23.9557 149.305 24.0327 149.333 24.126L150.488 27.976C150.549 28.186 150.605 28.3937 150.656 28.599C150.712 28.7997 150.766 29.0003 150.817 29.201C150.878 28.8043 150.964 28.396 151.076 27.976L152.133 24.14C152.166 24.0467 152.224 23.9697 152.308 23.909C152.392 23.8483 152.493 23.818 152.609 23.818H153.925ZM156.701 23.818V31H154.965V23.818H156.701ZM156.939 21.725C156.939 21.8743 156.908 22.0143 156.848 22.145C156.787 22.2757 156.705 22.39 156.603 22.488C156.505 22.586 156.388 22.6653 156.253 22.726C156.117 22.782 155.973 22.81 155.819 22.81C155.669 22.81 155.527 22.782 155.392 22.726C155.261 22.6653 155.147 22.586 155.049 22.488C154.951 22.39 154.871 22.2757 154.811 22.145C154.755 22.0143 154.727 21.8743 154.727 21.725C154.727 21.571 154.755 21.4263 154.811 21.291C154.871 21.1557 154.951 21.039 155.049 20.941C155.147 20.843 155.261 20.766 155.392 20.71C155.527 20.6493 155.669 20.619 155.819 20.619C155.973 20.619 156.117 20.6493 156.253 20.71C156.388 20.766 156.505 20.843 156.603 20.941C156.705 21.039 156.787 21.1557 156.848 21.291C156.908 21.4263 156.939 21.571 156.939 21.725ZM160.857 31.112C160.232 31.112 159.751 30.937 159.415 30.587C159.084 30.2323 158.918 29.7447 158.918 29.124V25.113H158.183C158.09 25.113 158.011 25.0827 157.945 25.022C157.88 24.9613 157.847 24.8703 157.847 24.749V24.063L159.002 23.874L159.366 21.914C159.39 21.8207 159.434 21.7483 159.499 21.697C159.565 21.6457 159.649 21.62 159.751 21.62H160.647V23.881H162.565V25.113H160.647V29.005C160.647 29.229 160.701 29.404 160.808 29.53C160.92 29.656 161.072 29.719 161.263 29.719C161.371 29.719 161.459 29.7073 161.529 29.684C161.604 29.656 161.667 29.628 161.718 29.6C161.774 29.572 161.823 29.5463 161.865 29.523C161.907 29.495 161.949 29.481 161.991 29.481C162.043 29.481 162.085 29.495 162.117 29.523C162.15 29.5463 162.185 29.5837 162.222 29.635L162.74 30.475C162.488 30.685 162.199 30.8437 161.872 30.951C161.546 31.0583 161.207 31.112 160.857 31.112ZM165.401 24.588C165.681 24.3267 165.989 24.1143 166.325 23.951C166.661 23.7877 167.056 23.706 167.508 23.706C167.9 23.706 168.248 23.7737 168.551 23.909C168.855 24.0397 169.107 24.2263 169.307 24.469C169.513 24.707 169.667 24.994 169.769 25.33C169.877 25.6613 169.93 26.0277 169.93 26.429V31H168.201V26.429C168.201 25.9903 168.101 25.652 167.9 25.414C167.7 25.1713 167.394 25.05 166.983 25.05C166.685 25.05 166.405 25.1177 166.143 25.253C165.882 25.3883 165.635 25.5727 165.401 25.806V31H163.672V20.598H165.401V24.588ZM175.483 31V25.12L174.86 25.022C174.725 24.994 174.615 24.9473 174.531 24.882C174.452 24.812 174.412 24.714 174.412 24.588V23.881H175.483V23.349C175.483 22.9383 175.544 22.5697 175.665 22.243C175.791 21.9163 175.968 21.6387 176.197 21.41C176.43 21.1813 176.713 21.0063 177.044 20.885C177.375 20.7637 177.749 20.703 178.164 20.703C178.495 20.703 178.803 20.7473 179.088 20.836L179.053 21.704C179.048 21.7693 179.03 21.823 178.997 21.865C178.964 21.9023 178.92 21.9327 178.864 21.956C178.813 21.9747 178.752 21.9887 178.682 21.998C178.612 22.0027 178.537 22.005 178.458 22.005C178.253 22.005 178.068 22.0283 177.905 22.075C177.746 22.117 177.611 22.194 177.499 22.306C177.387 22.4133 177.301 22.558 177.24 22.74C177.184 22.9173 177.156 23.139 177.156 23.405V23.881H179.025V25.113H177.212V31H175.483ZM181.628 25.064C181.852 24.6347 182.118 24.2987 182.426 24.056C182.734 23.8087 183.098 23.685 183.518 23.685C183.849 23.685 184.115 23.7573 184.316 23.902L184.204 25.197C184.18 25.281 184.145 25.3417 184.099 25.379C184.057 25.4117 183.998 25.428 183.924 25.428C183.854 25.428 183.749 25.4163 183.609 25.393C183.473 25.3697 183.34 25.358 183.21 25.358C183.018 25.358 182.848 25.386 182.699 25.442C182.549 25.498 182.414 25.5797 182.293 25.687C182.176 25.7897 182.071 25.9157 181.978 26.065C181.889 26.2143 181.805 26.3847 181.726 26.576V31H179.997V23.818H181.012C181.189 23.818 181.313 23.8507 181.383 23.916C181.453 23.9767 181.499 24.0887 181.523 24.252L181.628 25.064ZM187.011 23.818V31H185.275V23.818H187.011ZM187.249 21.725C187.249 21.8743 187.219 22.0143 187.158 22.145C187.098 22.2757 187.016 22.39 186.913 22.488C186.815 22.586 186.699 22.6653 186.563 22.726C186.428 22.782 186.283 22.81 186.129 22.81C185.98 22.81 185.838 22.782 185.702 22.726C185.572 22.6653 185.457 22.586 185.359 22.488C185.261 22.39 185.182 22.2757 185.121 22.145C185.065 22.0143 185.037 21.8743 185.037 21.725C185.037 21.571 185.065 21.4263 185.121 21.291C185.182 21.1557 185.261 21.039 185.359 20.941C185.457 20.843 185.572 20.766 185.702 20.71C185.838 20.6493 185.98 20.619 186.129 20.619C186.283 20.619 186.428 20.6493 186.563 20.71C186.699 20.766 186.815 20.843 186.913 20.941C187.016 21.039 187.098 21.1557 187.158 21.291C187.219 21.4263 187.249 21.571 187.249 21.725ZM193.401 26.583C193.401 26.359 193.368 26.149 193.303 25.953C193.242 25.7523 193.149 25.5773 193.023 25.428C192.897 25.2787 192.736 25.162 192.54 25.078C192.349 24.9893 192.125 24.945 191.868 24.945C191.369 24.945 190.974 25.0873 190.685 25.372C190.4 25.6567 190.218 26.0603 190.139 26.583H193.401ZM190.104 27.626C190.132 27.9947 190.197 28.3143 190.3 28.585C190.403 28.851 190.538 29.0727 190.706 29.25C190.874 29.4227 191.072 29.5533 191.301 29.642C191.534 29.726 191.791 29.768 192.071 29.768C192.351 29.768 192.591 29.7353 192.792 29.67C192.997 29.6047 193.175 29.5323 193.324 29.453C193.478 29.3737 193.611 29.3013 193.723 29.236C193.84 29.1707 193.952 29.138 194.059 29.138C194.204 29.138 194.311 29.1917 194.381 29.299L194.878 29.929C194.687 30.153 194.472 30.342 194.234 30.496C193.996 30.6453 193.746 30.7667 193.485 30.86C193.228 30.9487 192.965 31.0117 192.694 31.049C192.428 31.0863 192.169 31.105 191.917 31.105C191.418 31.105 190.953 31.0233 190.524 30.86C190.095 30.692 189.721 30.447 189.404 30.125C189.087 29.7983 188.837 29.397 188.655 28.921C188.473 28.4403 188.382 27.885 188.382 27.255C188.382 26.765 188.461 26.3053 188.62 25.876C188.779 25.442 189.005 25.0663 189.299 24.749C189.598 24.427 189.959 24.1727 190.384 23.986C190.813 23.7993 191.296 23.706 191.833 23.706C192.286 23.706 192.703 23.7783 193.086 23.923C193.469 24.0677 193.798 24.28 194.073 24.56C194.348 24.8353 194.563 25.176 194.717 25.582C194.876 25.9833 194.955 26.443 194.955 26.961C194.955 27.2223 194.927 27.3997 194.871 27.493C194.815 27.5817 194.708 27.626 194.549 27.626H190.104ZM197.869 24.7C198.014 24.5553 198.166 24.4223 198.324 24.301C198.488 24.175 198.658 24.07 198.835 23.986C199.017 23.8973 199.211 23.8297 199.416 23.783C199.622 23.7317 199.846 23.706 200.088 23.706C200.48 23.706 200.828 23.7737 201.131 23.909C201.435 24.0397 201.687 24.2263 201.887 24.469C202.093 24.707 202.247 24.994 202.349 25.33C202.457 25.6613 202.51 26.0277 202.51 26.429V31H200.781V26.429C200.781 25.9903 200.681 25.652 200.48 25.414C200.28 25.1713 199.974 25.05 199.563 25.05C199.265 25.05 198.985 25.1177 198.723 25.253C198.462 25.3883 198.215 25.5727 197.981 25.806V31H196.252V23.818H197.309C197.533 23.818 197.68 23.923 197.75 24.133L197.869 24.7ZM208.663 25.652C208.467 25.414 208.252 25.246 208.019 25.148C207.79 25.05 207.543 25.001 207.277 25.001C207.015 25.001 206.78 25.05 206.57 25.148C206.36 25.246 206.18 25.3953 206.031 25.596C205.881 25.792 205.767 26.044 205.688 26.352C205.608 26.6553 205.569 27.0147 205.569 27.43C205.569 27.85 205.601 28.207 205.667 28.501C205.737 28.7903 205.835 29.0283 205.961 29.215C206.087 29.397 206.241 29.53 206.423 29.614C206.605 29.6933 206.808 29.733 207.032 29.733C207.391 29.733 207.697 29.6583 207.949 29.509C208.201 29.3597 208.439 29.1473 208.663 28.872V25.652ZM210.392 20.598V31H209.335C209.106 31 208.961 30.895 208.901 30.685L208.754 29.992C208.464 30.3233 208.131 30.5917 207.753 30.797C207.379 31.0023 206.943 31.105 206.444 31.105C206.052 31.105 205.692 31.0233 205.366 30.86C205.039 30.6967 204.757 30.461 204.519 30.153C204.285 29.8403 204.103 29.4553 203.973 28.998C203.847 28.5407 203.784 28.018 203.784 27.43C203.784 26.898 203.856 26.4033 204.001 25.946C204.145 25.4887 204.353 25.092 204.624 24.756C204.894 24.42 205.219 24.1587 205.597 23.972C205.975 23.7807 206.399 23.685 206.871 23.685C207.272 23.685 207.615 23.748 207.9 23.874C208.184 24 208.439 24.1703 208.663 24.385V20.598H210.392ZM216.48 25.218C216.433 25.2927 216.384 25.3463 216.333 25.379C216.282 25.407 216.216 25.421 216.137 25.421C216.053 25.421 215.962 25.3977 215.864 25.351C215.771 25.3043 215.661 25.253 215.535 25.197C215.409 25.1363 215.264 25.0827 215.101 25.036C214.942 24.9893 214.753 24.966 214.534 24.966C214.193 24.966 213.925 25.0383 213.729 25.183C213.538 25.3277 213.442 25.5167 213.442 25.75C213.442 25.904 213.491 26.0347 213.589 26.142C213.692 26.2447 213.825 26.3357 213.988 26.415C214.156 26.4943 214.345 26.5667 214.555 26.632C214.765 26.6927 214.977 26.7603 215.192 26.835C215.411 26.9097 215.626 26.996 215.836 27.094C216.046 27.1873 216.233 27.3087 216.396 27.458C216.564 27.6027 216.697 27.7777 216.795 27.983C216.898 28.1883 216.949 28.4357 216.949 28.725C216.949 29.0703 216.886 29.39 216.76 29.684C216.639 29.9733 216.457 30.2253 216.214 30.44C215.971 30.65 215.67 30.8157 215.311 30.937C214.956 31.0537 214.546 31.112 214.079 31.112C213.832 31.112 213.589 31.0887 213.351 31.042C213.118 31 212.891 30.9393 212.672 30.86C212.457 30.7807 212.257 30.6873 212.07 30.58C211.888 30.4727 211.727 30.356 211.587 30.23L211.986 29.572C212.037 29.4927 212.098 29.432 212.168 29.39C212.238 29.348 212.327 29.327 212.434 29.327C212.541 29.327 212.642 29.3573 212.735 29.418C212.833 29.4787 212.945 29.544 213.071 29.614C213.197 29.684 213.344 29.7493 213.512 29.81C213.685 29.8707 213.902 29.901 214.163 29.901C214.368 29.901 214.543 29.8777 214.688 29.831C214.837 29.7797 214.959 29.7143 215.052 29.635C215.15 29.5557 215.22 29.4647 215.262 29.362C215.309 29.2547 215.332 29.145 215.332 29.033C215.332 28.865 215.281 28.7273 215.178 28.62C215.08 28.5127 214.947 28.4193 214.779 28.34C214.616 28.2607 214.427 28.1907 214.212 28.13C214.002 28.0647 213.785 27.9947 213.561 27.92C213.342 27.8453 213.125 27.759 212.91 27.661C212.7 27.5583 212.511 27.43 212.343 27.276C212.18 27.122 212.047 26.933 211.944 26.709C211.846 26.485 211.797 26.2143 211.797 25.897C211.797 25.603 211.855 25.323 211.972 25.057C212.089 24.791 212.259 24.56 212.483 24.364C212.712 24.1633 212.994 24.0047 213.33 23.888C213.671 23.7667 214.063 23.706 214.506 23.706C215.001 23.706 215.451 23.7877 215.857 23.951C216.263 24.1143 216.601 24.329 216.872 24.595L216.48 25.218Z" fill="#29323D"/>
</svg>
